<svg width="212" height="345" viewBox="0 0 212 345" fill="none" xmlns="http://www.w3.org/2000/svg">
<path d="M211.6 334.5C211.6 340.1 207.1 344.6 201.5 344.6H10.1C4.5 344.6 0 340.1 0 334.5V10.1C0 4.5 4.5 0 10.1 0H201.5C207.1 0 211.6 4.5 211.6 10.1V334.5Z" fill="white"/>
<path d="M39.1604 194.602H41.4933L46.9786 208.001H47.1678L52.6531 194.602H54.9859V210.743H53.1575V198.48H52.9999L47.9559 210.743H46.1905L41.1465 198.48H40.9889V210.743H39.1604V194.602ZM62.215 211.027C61.4479 211.027 60.7517 210.882 60.1264 210.593C59.5012 210.299 59.0047 209.876 58.6369 209.325C58.2691 208.768 58.0852 208.095 58.0852 207.307C58.0852 206.613 58.2218 206.051 58.495 205.62C58.7682 205.184 59.1334 204.843 59.5905 204.596C60.0476 204.349 60.552 204.165 61.1037 204.044C61.6607 203.918 62.2202 203.818 62.7824 203.745C63.518 203.65 64.1143 203.579 64.5715 203.532C65.0338 203.479 65.3701 203.393 65.5802 203.272C65.7957 203.151 65.9034 202.941 65.9034 202.641V202.578C65.9034 201.801 65.6906 201.196 65.265 200.766C64.8447 200.335 64.2063 200.119 63.3499 200.119C62.4619 200.119 61.7657 200.314 61.2613 200.702C60.7569 201.091 60.4023 201.506 60.1974 201.948L58.432 201.317C58.7472 200.582 59.1676 200.009 59.693 199.599C60.2236 199.184 60.8016 198.895 61.4268 198.732C62.0573 198.564 62.6773 198.48 63.2868 198.48C63.6756 198.48 64.1222 198.527 64.6266 198.622C65.1363 198.711 65.6275 198.898 66.1004 199.181C66.5785 199.465 66.9752 199.893 67.2905 200.466C67.6057 201.039 67.7633 201.806 67.7633 202.767V210.743H65.9034V209.104H65.8088C65.6827 209.367 65.4725 209.648 65.1783 209.947C64.8841 210.247 64.4926 210.501 64.004 210.712C63.5154 210.922 62.919 211.027 62.215 211.027ZM62.4987 209.356C63.2343 209.356 63.8543 209.212 64.3587 208.923C64.8683 208.634 65.2519 208.261 65.5093 207.803C65.772 207.346 65.9034 206.866 65.9034 206.361V204.659C65.8246 204.753 65.6512 204.84 65.3832 204.919C65.1205 204.993 64.8158 205.058 64.469 205.116C64.1275 205.169 63.7938 205.216 63.4681 205.258C63.1476 205.295 62.8875 205.326 62.6878 205.352C62.2045 205.415 61.7526 205.518 61.3323 205.66C60.9172 205.796 60.5809 206.004 60.3235 206.282C60.0713 206.556 59.9452 206.929 59.9452 207.402C59.9452 208.048 60.1842 208.536 60.6624 208.867C61.1457 209.193 61.7579 209.356 62.4987 209.356ZM71.1582 210.743V198.638H72.9551V200.466H73.0812C73.3019 199.867 73.7012 199.381 74.2791 199.008C74.8571 198.635 75.5086 198.448 76.2337 198.448C76.3703 198.448 76.541 198.451 76.746 198.456C76.9509 198.462 77.1059 198.469 77.2109 198.48V200.371C77.1479 200.356 77.0034 200.332 76.7775 200.301C76.5568 200.264 76.323 200.245 76.0761 200.245C75.4876 200.245 74.9622 200.369 74.4998 200.616C74.0427 200.857 73.6802 201.194 73.4122 201.625C73.1495 202.05 73.0181 202.536 73.0181 203.083V210.743H71.1582ZM81.1496 206.33L81.1181 204.028H81.4964L86.7925 198.638H89.0938L83.4509 204.344H83.2933L81.1496 206.33ZM79.4157 210.743V194.602H81.2757V210.743H79.4157ZM87.1078 210.743L82.3791 204.753L83.7031 203.461L89.4721 210.743H87.1078ZM104.161 194.602H106.115V206.141C106.115 207.17 105.926 208.045 105.548 208.765C105.17 209.485 104.636 210.031 103.948 210.404C103.26 210.777 102.448 210.964 101.513 210.964C100.63 210.964 99.8445 210.804 99.1562 210.483C98.4679 210.157 97.9267 209.695 97.5327 209.096C97.1386 208.497 96.9416 207.785 96.9416 206.96H98.8646C98.8646 207.417 98.9775 207.817 99.2035 208.158C99.4347 208.494 99.7499 208.757 100.149 208.946C100.549 209.135 101.003 209.23 101.513 209.23C102.075 209.23 102.553 209.112 102.947 208.875C103.341 208.639 103.641 208.292 103.846 207.835C104.056 207.373 104.161 206.808 104.161 206.141V194.602ZM110.377 210.869C109.988 210.869 109.655 210.73 109.376 210.452C109.098 210.173 108.958 209.839 108.958 209.451C108.958 209.062 109.098 208.728 109.376 208.45C109.655 208.171 109.988 208.032 110.377 208.032C110.766 208.032 111.1 208.171 111.378 208.45C111.656 208.728 111.796 209.062 111.796 209.451C111.796 209.708 111.73 209.945 111.599 210.16C111.473 210.375 111.302 210.549 111.086 210.68C110.876 210.806 110.64 210.869 110.377 210.869ZM124.559 210.743L120.146 194.602H122.132L125.505 207.748H125.663L129.099 194.602H131.306L134.742 207.748H134.899L138.273 194.602H140.259L135.845 210.743H133.828L130.265 197.881H130.139L126.577 210.743H124.559ZM142.442 210.743V198.638H144.302V210.743H142.442ZM143.388 196.62C143.025 196.62 142.712 196.497 142.45 196.25C142.192 196.003 142.063 195.706 142.063 195.359C142.063 195.012 142.192 194.715 142.45 194.468C142.712 194.222 143.025 194.098 143.388 194.098C143.75 194.098 144.06 194.222 144.318 194.468C144.58 194.715 144.712 195.012 144.712 195.359C144.712 195.706 144.58 196.003 144.318 196.25C144.06 196.497 143.75 196.62 143.388 196.62ZM149.568 194.602V210.743H147.708V194.602H149.568ZM154.835 194.602V210.743H152.975V194.602H154.835ZM158.242 210.743V198.638H160.102V210.743H158.242ZM159.187 196.62C158.825 196.62 158.512 196.497 158.25 196.25C157.992 196.003 157.863 195.706 157.863 195.359C157.863 195.012 157.992 194.715 158.25 194.468C158.512 194.222 158.825 194.098 159.187 194.098C159.55 194.098 159.86 194.222 160.117 194.468C160.38 194.715 160.511 195.012 160.511 195.359C160.511 195.706 160.38 196.003 160.117 196.25C159.86 196.497 159.55 196.62 159.187 196.62ZM167.071 211.027C166.303 211.027 165.607 210.882 164.982 210.593C164.357 210.299 163.86 209.876 163.493 209.325C163.125 208.768 162.941 208.095 162.941 207.307C162.941 206.613 163.077 206.051 163.351 205.62C163.624 205.184 163.989 204.843 164.446 204.596C164.903 204.349 165.408 204.165 165.959 204.044C166.516 203.918 167.076 203.818 167.638 203.745C168.374 203.65 168.97 203.579 169.427 203.532C169.889 203.479 170.226 203.393 170.436 203.272C170.651 203.151 170.759 202.941 170.759 202.641V202.578C170.759 201.801 170.546 201.196 170.121 200.766C169.7 200.335 169.062 200.119 168.205 200.119C167.318 200.119 166.621 200.314 166.117 200.702C165.613 201.091 165.258 201.506 165.053 201.948L163.288 201.317C163.603 200.582 164.023 200.009 164.549 199.599C165.079 199.184 165.657 198.895 166.282 198.732C166.913 198.564 167.533 198.48 168.142 198.48C168.531 198.48 168.978 198.527 169.482 198.622C169.992 198.711 170.483 198.898 170.956 199.181C171.434 199.465 171.831 199.893 172.146 200.466C172.461 201.039 172.619 201.806 172.619 202.767V210.743H170.759V209.104H170.664C170.538 209.367 170.328 209.648 170.034 209.947C169.74 210.247 169.348 210.501 168.86 210.712C168.371 210.922 167.775 211.027 167.071 211.027ZM167.354 209.356C168.09 209.356 168.71 209.212 169.214 208.923C169.724 208.634 170.107 208.261 170.365 207.803C170.628 207.346 170.759 206.866 170.759 206.361V204.659C170.68 204.753 170.507 204.84 170.239 204.919C169.976 204.993 169.671 205.058 169.325 205.116C168.983 205.169 168.649 205.216 168.324 205.258C168.003 205.295 167.743 205.326 167.543 205.352C167.06 205.415 166.608 205.518 166.188 205.66C165.773 205.796 165.437 206.004 165.179 206.282C164.927 206.556 164.801 206.929 164.801 207.402C164.801 208.048 165.04 208.536 165.518 208.867C166.001 209.193 166.613 209.356 167.354 209.356ZM176.014 210.743V198.638H177.811V200.529H177.968C178.221 199.883 178.628 199.381 179.19 199.024C179.752 198.661 180.427 198.48 181.215 198.48C182.014 198.48 182.679 198.661 183.209 199.024C183.745 199.381 184.163 199.883 184.462 200.529H184.589C184.899 199.904 185.364 199.407 185.984 199.04C186.604 198.667 187.347 198.48 188.214 198.48C189.296 198.48 190.182 198.819 190.87 199.497C191.558 200.169 191.902 201.217 191.902 202.641V210.743H190.042V202.641C190.042 201.748 189.798 201.11 189.309 200.726C188.821 200.343 188.245 200.151 187.583 200.151C186.732 200.151 186.073 200.408 185.605 200.923C185.138 201.433 184.904 202.079 184.904 202.862V210.743H183.012V202.452C183.012 201.764 182.789 201.21 182.342 200.789C181.896 200.364 181.32 200.151 180.616 200.151C180.133 200.151 179.681 200.28 179.261 200.537C178.846 200.794 178.51 201.152 178.252 201.609C178 202.061 177.874 202.583 177.874 203.177V210.743H176.014Z" fill="#0B7077"/>
<path d="M62.9922 247.115V252.35H62.3583V247.115H62.9922ZM65.8786 252.35H64.2632V247.115H65.9502C66.458 247.115 66.8925 247.22 67.2538 247.429C67.615 247.637 67.892 247.936 68.0845 248.326C68.2771 248.715 68.3733 249.18 68.3733 249.722C68.3733 250.267 68.2762 250.737 68.082 251.13C67.8877 251.522 67.6048 251.824 67.2333 252.035C66.8619 252.245 66.4103 252.35 65.8786 252.35ZM64.8971 251.787H65.8377C66.2706 251.787 66.6293 251.704 66.9138 251.537C67.1984 251.37 67.4106 251.132 67.5503 250.824C67.69 250.515 67.7599 250.148 67.7599 249.722C67.7599 249.299 67.6909 248.936 67.5528 248.631C67.4148 248.324 67.2086 248.089 66.9343 247.925C66.6599 247.76 66.3183 247.677 65.9093 247.677H64.8971V251.787ZM75.6121 247.115V252.35H74.9987L72.1461 248.239H72.095V252.35H71.4611V247.115H72.0745L74.9373 251.235H74.9885V247.115H75.6121ZM79.2731 250.744V248.423H79.8763V252.35H79.2731V251.685H79.2322C79.1402 251.884 78.997 252.054 78.8028 252.194C78.6085 252.332 78.3631 252.401 78.0666 252.401C77.8212 252.401 77.6031 252.347 77.4123 252.24C77.2214 252.131 77.0715 251.967 76.9624 251.749C76.8533 251.529 76.7988 251.252 76.7988 250.918V248.423H77.402V250.877C77.402 251.164 77.4821 251.392 77.6423 251.562C77.8042 251.733 78.0104 251.818 78.2609 251.818C78.4108 251.818 78.5633 251.78 78.7184 251.703C78.8752 251.626 79.0064 251.509 79.112 251.35C79.2194 251.192 79.2731 250.99 79.2731 250.744ZM80.9812 252.35V248.423H81.564V249.037H81.6151C81.6969 248.827 81.8289 248.665 82.0113 248.549C82.1936 248.431 82.4126 248.372 82.6682 248.372C82.9272 248.372 83.1428 248.431 83.3149 248.549C83.4887 248.665 83.6242 248.827 83.7213 249.037H83.7622C83.8627 248.834 84.0135 248.673 84.2146 248.554C84.4157 248.433 84.6568 248.372 84.938 248.372C85.289 248.372 85.5761 248.482 85.7994 248.702C86.0226 248.92 86.1342 249.26 86.1342 249.722V252.35H85.531V249.722C85.531 249.432 85.4517 249.225 85.2933 249.101C85.1348 248.976 84.9482 248.914 84.7335 248.914C84.4574 248.914 84.2436 248.998 84.0919 249.165C83.9403 249.33 83.8644 249.54 83.8644 249.794V252.35H83.251V249.661C83.251 249.437 83.1785 249.258 83.0337 249.121C82.8889 248.983 82.7023 248.914 82.4739 248.914C82.3171 248.914 82.1706 248.956 82.0343 249.039C81.8997 249.123 81.7906 249.239 81.7071 249.387C81.6253 249.534 81.5844 249.703 81.5844 249.896V252.35H80.9812ZM87.319 252.35V247.115H87.9222V249.047H87.9733C88.0176 248.979 88.079 248.892 88.1573 248.786C88.2374 248.679 88.3516 248.584 88.4999 248.5C88.6498 248.415 88.8526 248.372 89.1082 248.372C89.4388 248.372 89.7302 248.455 89.9824 248.62C90.2346 248.786 90.4314 249.02 90.5728 249.323C90.7143 249.627 90.785 249.984 90.785 250.397C90.785 250.813 90.7143 251.173 90.5728 251.478C90.4314 251.781 90.2354 252.016 89.9849 252.183C89.7344 252.349 89.4456 252.431 89.1184 252.431C88.8662 252.431 88.6643 252.39 88.5126 252.306C88.361 252.221 88.2443 252.125 88.1625 252.017C88.0807 251.908 88.0176 251.818 87.9733 251.746H87.9017V252.35H87.319ZM87.912 250.387C87.912 250.683 87.9554 250.945 88.0423 251.171C88.1292 251.396 88.2562 251.573 88.4232 251.7C88.5902 251.826 88.7947 251.89 89.0366 251.89C89.2888 251.89 89.4993 251.823 89.668 251.69C89.8384 251.556 89.9662 251.375 90.0514 251.148C90.1383 250.92 90.1818 250.666 90.1818 250.387C90.1818 250.11 90.1392 249.862 90.054 249.64C89.9705 249.417 89.8435 249.241 89.6731 249.111C89.5044 248.98 89.2922 248.914 89.0366 248.914C88.7913 248.914 88.5851 248.976 88.4181 249.101C88.2511 249.224 88.125 249.396 88.0398 249.617C87.9546 249.837 87.912 250.093 87.912 250.387ZM93.3538 252.431C92.9755 252.431 92.6492 252.348 92.3749 252.181C92.1022 252.012 91.8918 251.777 91.7435 251.475C91.597 251.172 91.5237 250.819 91.5237 250.417C91.5237 250.015 91.597 249.661 91.7435 249.354C91.8918 249.045 92.098 248.805 92.3621 248.633C92.6279 248.459 92.9381 248.372 93.2925 248.372C93.497 248.372 93.6989 248.406 93.8983 248.475C94.0977 248.543 94.2791 248.654 94.4427 248.807C94.6063 248.959 94.7367 249.16 94.8338 249.41C94.9309 249.661 94.9795 249.969 94.9795 250.335V250.591H91.9531V250.07H94.366C94.366 249.848 94.3217 249.65 94.2331 249.477C94.1462 249.303 94.0218 249.166 93.8599 249.065C93.6998 248.965 93.5106 248.914 93.2925 248.914C93.0522 248.914 92.8443 248.974 92.6688 249.093C92.495 249.211 92.3612 249.364 92.2675 249.553C92.1738 249.742 92.1269 249.945 92.1269 250.162V250.509C92.1269 250.806 92.178 251.057 92.2803 251.263C92.3842 251.468 92.5282 251.624 92.7123 251.731C92.8963 251.837 93.1102 251.89 93.3538 251.89C93.5123 251.89 93.6555 251.867 93.7833 251.823C93.9128 251.777 94.0244 251.709 94.1181 251.619C94.2118 251.527 94.2843 251.412 94.3354 251.276L94.9182 251.44C94.8568 251.637 94.7537 251.811 94.6089 251.961C94.464 252.109 94.2851 252.225 94.0721 252.309C93.8591 252.391 93.6197 252.431 93.3538 252.431ZM95.8971 252.35V248.423H96.4799V249.016H96.5208C96.5924 248.822 96.7219 248.665 96.9093 248.544C97.0968 248.423 97.3081 248.362 97.5432 248.362C97.5876 248.362 97.6429 248.363 97.7094 248.365C97.7758 248.366 97.8261 248.369 97.8602 248.372V248.986C97.8398 248.981 97.7929 248.973 97.7196 248.963C97.648 248.951 97.5722 248.945 97.4921 248.945C97.3013 248.945 97.1309 248.985 96.9809 249.065C96.8327 249.143 96.7151 249.253 96.6282 249.392C96.543 249.53 96.5004 249.688 96.5004 249.865V252.35H95.8971ZM101.039 251.68C100.913 251.68 100.805 251.635 100.715 251.544C100.624 251.454 100.579 251.346 100.579 251.22C100.579 251.094 100.624 250.986 100.715 250.895C100.805 250.805 100.913 250.76 101.039 250.76C101.165 250.76 101.274 250.805 101.364 250.895C101.454 250.986 101.499 251.094 101.499 251.22C101.499 251.303 101.478 251.38 101.436 251.45C101.395 251.52 101.339 251.576 101.269 251.619C101.201 251.659 101.125 251.68 101.039 251.68ZM101.039 249.032C100.913 249.032 100.805 248.987 100.715 248.896C100.624 248.806 100.579 248.698 100.579 248.572C100.579 248.446 100.624 248.337 100.715 248.247C100.805 248.157 100.913 248.112 101.039 248.112C101.165 248.112 101.274 248.157 101.364 248.247C101.454 248.337 101.499 248.446 101.499 248.572C101.499 248.655 101.478 248.732 101.436 248.802C101.395 248.872 101.339 248.928 101.269 248.97C101.201 249.011 101.125 249.032 101.039 249.032ZM106.304 252.421C105.918 252.421 105.59 252.316 105.319 252.107C105.049 251.895 104.841 251.59 104.698 251.189C104.555 250.787 104.484 250.301 104.484 249.732C104.484 249.166 104.555 248.683 104.698 248.283C104.843 247.881 105.051 247.574 105.322 247.363C105.595 247.15 105.922 247.043 106.304 247.043C106.685 247.043 107.012 247.15 107.283 247.363C107.555 247.574 107.763 247.881 107.906 248.283C108.051 248.683 108.123 249.166 108.123 249.732C108.123 250.301 108.052 250.787 107.909 251.189C107.766 251.59 107.559 251.895 107.288 252.107C107.017 252.316 106.689 252.421 106.304 252.421ZM106.304 251.859C106.685 251.859 106.982 251.675 107.193 251.307C107.404 250.939 107.51 250.414 107.51 249.732C107.51 249.279 107.461 248.893 107.364 248.574C107.269 248.256 107.131 248.013 106.95 247.846C106.771 247.679 106.556 247.595 106.304 247.595C105.925 247.595 105.63 247.782 105.417 248.155C105.204 248.527 105.097 249.052 105.097 249.732C105.097 250.185 105.145 250.571 105.24 250.888C105.336 251.204 105.473 251.446 105.652 251.611C105.832 251.776 106.05 251.859 106.304 251.859ZM110.935 247.115V252.35H110.301V247.779H110.271L108.993 248.628V247.984L110.301 247.115H110.935ZM112.441 252.35V251.89L114.169 249.998C114.371 249.776 114.538 249.584 114.67 249.42C114.801 249.255 114.898 249.1 114.961 248.955C115.026 248.809 115.058 248.655 115.058 248.495C115.058 248.311 115.014 248.152 114.925 248.017C114.838 247.882 114.719 247.778 114.567 247.705C114.416 247.632 114.245 247.595 114.056 247.595C113.855 247.595 113.68 247.637 113.53 247.721C113.381 247.802 113.266 247.917 113.184 248.066C113.104 248.214 113.064 248.388 113.064 248.587H112.461C112.461 248.28 112.532 248.011 112.673 247.779C112.815 247.548 113.007 247.367 113.251 247.237C113.496 247.108 113.772 247.043 114.077 247.043C114.383 247.043 114.655 247.108 114.892 247.237C115.129 247.367 115.315 247.542 115.449 247.761C115.584 247.981 115.651 248.226 115.651 248.495C115.651 248.688 115.616 248.876 115.546 249.06C115.478 249.242 115.359 249.446 115.188 249.671C115.02 249.894 114.785 250.167 114.486 250.489L113.31 251.746V251.787H115.743V252.35H112.441ZM118.639 247.115V252.35H118.005V247.779H117.975L116.697 248.628V247.984L118.005 247.115H118.639ZM122.169 252.35V251.89L123.897 249.998C124.1 249.776 124.267 249.584 124.398 249.42C124.529 249.255 124.626 249.1 124.689 248.955C124.754 248.809 124.787 248.655 124.787 248.495C124.787 248.311 124.742 248.152 124.654 248.017C124.567 247.882 124.447 247.778 124.296 247.705C124.144 247.632 123.974 247.595 123.785 247.595C123.583 247.595 123.408 247.637 123.258 247.721C123.11 247.802 122.995 247.917 122.913 248.066C122.833 248.214 122.793 248.388 122.793 248.587H122.19C122.19 248.28 122.26 248.011 122.402 247.779C122.543 247.548 122.736 247.367 122.979 247.237C123.225 247.108 123.5 247.043 123.805 247.043C124.112 247.043 124.383 247.108 124.62 247.237C124.857 247.367 125.043 247.542 125.178 247.761C125.312 247.981 125.38 248.226 125.38 248.495C125.38 248.688 125.345 248.876 125.275 249.06C125.207 249.242 125.087 249.446 124.917 249.671C124.748 249.894 124.514 250.167 124.214 250.489L123.038 251.746V251.787H125.472V252.35H122.169ZM128.296 252.421C127.959 252.421 127.658 252.363 127.394 252.247C127.131 252.131 126.923 251.97 126.767 251.764C126.614 251.556 126.531 251.315 126.517 251.041H127.161C127.175 251.21 127.233 251.355 127.335 251.478C127.437 251.599 127.571 251.693 127.736 251.759C127.902 251.826 128.085 251.859 128.286 251.859C128.511 251.859 128.71 251.82 128.884 251.741C129.058 251.663 129.194 251.554 129.293 251.414C129.392 251.274 129.441 251.112 129.441 250.928C129.441 250.736 129.393 250.566 129.298 250.42C129.203 250.272 129.063 250.156 128.879 250.072C128.695 249.989 128.47 249.947 128.204 249.947H127.785V249.385H128.204C128.412 249.385 128.594 249.347 128.751 249.272C128.909 249.197 129.033 249.091 129.122 248.955C129.212 248.819 129.257 248.659 129.257 248.475C129.257 248.297 129.218 248.143 129.139 248.012C129.061 247.881 128.95 247.778 128.807 247.705C128.666 247.632 128.499 247.595 128.306 247.595C128.126 247.595 127.955 247.629 127.795 247.695C127.637 247.76 127.507 247.854 127.406 247.979C127.306 248.101 127.251 248.25 127.243 248.423H126.629C126.64 248.149 126.722 247.909 126.877 247.703C127.032 247.495 127.235 247.333 127.486 247.217C127.738 247.101 128.015 247.043 128.316 247.043C128.64 247.043 128.918 247.109 129.15 247.24C129.381 247.37 129.56 247.541 129.684 247.754C129.808 247.967 129.871 248.197 129.871 248.444C129.871 248.739 129.793 248.99 129.638 249.198C129.485 249.406 129.276 249.55 129.012 249.63V249.671C129.342 249.725 129.6 249.866 129.786 250.093C129.972 250.318 130.065 250.596 130.065 250.928C130.065 251.213 129.987 251.469 129.832 251.695C129.679 251.92 129.469 252.097 129.203 252.227C128.938 252.356 128.635 252.421 128.296 252.421ZM131.274 252.35L133.615 247.718V247.677H130.916V247.115H134.27V247.708L131.938 252.35H131.274ZM136.848 252.421C136.633 252.418 136.419 252.377 136.204 252.298C135.989 252.22 135.793 252.088 135.616 251.902C135.439 251.715 135.296 251.462 135.189 251.143C135.082 250.823 135.028 250.421 135.028 249.937C135.028 249.473 135.072 249.063 135.158 248.705C135.245 248.345 135.371 248.043 135.537 247.797C135.702 247.55 135.901 247.363 136.135 247.235C136.37 247.107 136.635 247.043 136.93 247.043C137.223 247.043 137.484 247.102 137.712 247.22C137.942 247.335 138.129 247.497 138.274 247.705C138.419 247.913 138.513 248.153 138.555 248.423H137.932C137.874 248.188 137.761 247.993 137.594 247.838C137.427 247.683 137.206 247.606 136.93 247.606C136.524 247.606 136.205 247.782 135.971 248.135C135.739 248.487 135.623 248.982 135.621 249.62H135.662C135.757 249.475 135.871 249.351 136.002 249.249C136.135 249.145 136.281 249.065 136.442 249.009C136.602 248.953 136.771 248.924 136.95 248.924C137.25 248.924 137.524 248.999 137.773 249.149C138.022 249.298 138.221 249.503 138.371 249.765C138.521 250.026 138.596 250.325 138.596 250.663C138.596 250.986 138.524 251.283 138.379 251.552C138.234 251.82 138.031 252.033 137.768 252.191C137.507 252.348 137.201 252.425 136.848 252.421ZM136.848 251.859C137.063 251.859 137.255 251.805 137.426 251.698C137.598 251.59 137.733 251.446 137.832 251.266C137.933 251.085 137.983 250.884 137.983 250.663C137.983 250.446 137.934 250.249 137.837 250.072C137.742 249.893 137.61 249.751 137.441 249.645C137.274 249.54 137.083 249.487 136.868 249.487C136.707 249.487 136.556 249.519 136.416 249.584C136.276 249.647 136.154 249.734 136.048 249.845C135.944 249.955 135.862 250.082 135.803 250.226C135.743 250.367 135.713 250.516 135.713 250.673C135.713 250.881 135.762 251.075 135.859 251.256C135.958 251.436 136.092 251.582 136.263 251.693C136.435 251.803 136.63 251.859 136.848 251.859ZM143.466 247.115V252.35H142.832V247.779H142.802L141.524 248.628V247.984L142.832 247.115H143.466ZM146.996 252.35V251.89L148.724 249.998C148.927 249.776 149.094 249.584 149.225 249.42C149.356 249.255 149.453 249.1 149.517 248.955C149.581 248.809 149.614 248.655 149.614 248.495C149.614 248.311 149.569 248.152 149.481 248.017C149.394 247.882 149.275 247.778 149.123 247.705C148.971 247.632 148.801 247.595 148.612 247.595C148.411 247.595 148.235 247.637 148.085 247.721C147.937 247.802 147.822 247.917 147.74 248.066C147.66 248.214 147.62 248.388 147.62 248.587H147.017C147.017 248.28 147.087 248.011 147.229 247.779C147.37 247.548 147.563 247.367 147.806 247.237C148.052 247.108 148.327 247.043 148.632 247.043C148.939 247.043 149.211 247.108 149.447 247.237C149.684 247.367 149.87 247.542 150.005 247.761C150.139 247.981 150.207 248.226 150.207 248.495C150.207 248.688 150.172 248.876 150.102 249.06C150.034 249.242 149.914 249.446 149.744 249.671C149.575 249.894 149.341 250.167 149.041 250.489L147.865 251.746V251.787H150.299V252.35H146.996ZM153.021 247.043C153.236 247.045 153.45 247.086 153.665 247.166C153.88 247.246 154.076 247.379 154.253 247.565C154.43 247.749 154.572 248 154.68 248.319C154.787 248.637 154.841 249.037 154.841 249.517C154.841 249.983 154.796 250.396 154.708 250.757C154.621 251.117 154.495 251.42 154.33 251.667C154.166 251.914 153.967 252.102 153.731 252.229C153.498 252.357 153.234 252.421 152.939 252.421C152.646 252.421 152.384 252.363 152.154 252.247C151.926 252.13 151.739 251.967 151.592 251.759C151.447 251.55 151.354 251.307 151.313 251.031H151.937C151.993 251.271 152.105 251.469 152.272 251.626C152.441 251.781 152.663 251.859 152.939 251.859C153.343 251.859 153.662 251.682 153.895 251.33C154.13 250.977 154.248 250.479 154.248 249.834H154.207C154.111 249.978 153.998 250.101 153.867 250.205C153.736 250.309 153.59 250.389 153.43 250.445C153.27 250.502 153.099 250.53 152.919 250.53C152.619 250.53 152.344 250.456 152.093 250.307C151.844 250.157 151.645 249.952 151.495 249.691C151.347 249.429 151.273 249.129 151.273 248.792C151.273 248.471 151.344 248.178 151.487 247.912C151.632 247.645 151.835 247.432 152.096 247.273C152.358 247.115 152.666 247.038 153.021 247.043ZM153.021 247.606C152.806 247.606 152.613 247.659 152.441 247.767C152.27 247.872 152.135 248.015 152.034 248.196C151.935 248.375 151.886 248.573 151.886 248.792C151.886 249.01 151.934 249.208 152.029 249.387C152.126 249.564 152.258 249.706 152.425 249.811C152.594 249.915 152.786 249.967 153 249.967C153.162 249.967 153.313 249.936 153.453 249.873C153.593 249.808 153.714 249.72 153.818 249.609C153.924 249.497 154.007 249.37 154.066 249.229C154.126 249.086 154.156 248.936 154.156 248.781C154.156 248.577 154.106 248.385 154.008 248.206C153.91 248.027 153.776 247.882 153.604 247.772C153.433 247.661 153.239 247.606 153.021 247.606ZM157.686 247.115V252.35H157.052V247.779H157.022L155.744 248.628V247.984L157.052 247.115H157.686Z" fill="#535352"/>
<path d="M66.766 260.95L65.5698 257.023H66.2037L67.0523 260.029H67.0932L67.9316 257.023H68.5757L69.4039 260.019H69.4448L70.2934 257.023H70.9273L69.731 260.95H69.138L68.2792 257.933H68.2178L67.359 260.95H66.766ZM71.7248 260.95V257.023H72.328V260.95H71.7248ZM72.0315 256.369C71.9139 256.369 71.8125 256.329 71.7273 256.249C71.6438 256.169 71.6021 256.073 71.6021 255.96C71.6021 255.848 71.6438 255.751 71.7273 255.671C71.8125 255.591 71.9139 255.551 72.0315 255.551C72.1491 255.551 72.2496 255.591 72.3331 255.671C72.4183 255.751 72.4609 255.848 72.4609 255.96C72.4609 256.073 72.4183 256.169 72.3331 256.249C72.2496 256.329 72.1491 256.369 72.0315 256.369ZM74.0361 255.715V260.95H73.4329V255.715H74.0361ZM75.7442 255.715V260.95H75.141V255.715H75.7442ZM76.8491 260.95V257.023H77.4523V260.95H76.8491ZM77.1558 256.369C77.0382 256.369 76.9368 256.329 76.8516 256.249C76.7681 256.169 76.7264 256.073 76.7264 255.96C76.7264 255.848 76.7681 255.751 76.8516 255.671C76.9368 255.591 77.0382 255.551 77.1558 255.551C77.2734 255.551 77.3739 255.591 77.4574 255.671C77.5426 255.751 77.5852 255.848 77.5852 255.96C77.5852 256.073 77.5426 256.169 77.4574 256.249C77.3739 256.329 77.2734 256.369 77.1558 256.369ZM79.7125 261.042C79.4637 261.042 79.2379 260.995 79.0351 260.901C78.8324 260.806 78.6713 260.668 78.552 260.489C78.4328 260.309 78.3731 260.091 78.3731 259.835C78.3731 259.61 78.4174 259.428 78.506 259.288C78.5946 259.147 78.7131 259.036 78.8613 258.956C79.0096 258.876 79.1732 258.816 79.3521 258.777C79.5327 258.736 79.7142 258.704 79.8965 258.68C80.1351 258.649 80.3285 258.626 80.4768 258.611C80.6267 258.594 80.7358 258.566 80.8039 258.526C80.8738 258.487 80.9087 258.419 80.9087 258.322V258.301C80.9087 258.049 80.8397 257.853 80.7017 257.714C80.5654 257.574 80.3583 257.504 80.0806 257.504C79.7926 257.504 79.5668 257.567 79.4032 257.693C79.2396 257.819 79.1246 257.954 79.0581 258.097L78.4856 257.893C78.5878 257.654 78.7242 257.468 78.8946 257.335C79.0667 257.201 79.2541 257.107 79.4569 257.054C79.6614 257 79.8625 256.972 80.0601 256.972C80.1862 256.972 80.3311 256.988 80.4947 257.018C80.66 257.047 80.8193 257.108 80.9726 257.2C81.1277 257.292 81.2564 257.431 81.3586 257.616C81.4609 257.802 81.512 258.051 81.512 258.363V260.95H80.9087V260.418H80.8781C80.8372 260.503 80.769 260.594 80.6736 260.691C80.5782 260.789 80.4512 260.871 80.2927 260.939C80.1343 261.008 79.9408 261.042 79.7125 261.042ZM79.8045 260.5C80.0431 260.5 80.2442 260.453 80.4078 260.359C80.573 260.265 80.6974 260.144 80.7809 259.996C80.8661 259.848 80.9087 259.692 80.9087 259.528V258.976C80.8832 259.007 80.827 259.035 80.74 259.061C80.6548 259.085 80.556 259.106 80.4435 259.125C80.3328 259.142 80.2246 259.157 80.1189 259.171C80.015 259.182 79.9306 259.193 79.8659 259.201C79.7091 259.222 79.5625 259.255 79.4262 259.301C79.2916 259.345 79.1825 259.413 79.099 259.503C79.0173 259.591 78.9764 259.712 78.9764 259.866C78.9764 260.075 79.0539 260.234 79.209 260.341C79.3657 260.447 79.5643 260.5 79.8045 260.5ZM82.613 260.95V257.023H83.1958V257.637H83.2469C83.3287 257.427 83.4608 257.265 83.6431 257.149C83.8254 257.031 84.0444 256.972 84.3 256.972C84.559 256.972 84.7746 257.031 84.9467 257.149C85.1205 257.265 85.256 257.427 85.3531 257.637H85.394C85.4946 257.434 85.6454 257.273 85.8464 257.154C86.0475 257.033 86.2886 256.972 86.5698 256.972C86.9208 256.972 87.208 257.082 87.4312 257.302C87.6544 257.52 87.766 257.86 87.766 258.322V260.95H87.1628V258.322C87.1628 258.032 87.0836 257.825 86.9251 257.701C86.7666 257.576 86.58 257.514 86.3653 257.514C86.0893 257.514 85.8754 257.598 85.7237 257.765C85.5721 257.93 85.4963 258.14 85.4963 258.394V260.95H84.8828V258.261C84.8828 258.037 84.8104 257.858 84.6655 257.721C84.5207 257.583 84.3341 257.514 84.1058 257.514C83.949 257.514 83.8024 257.556 83.6661 257.639C83.5315 257.723 83.4224 257.839 83.3389 257.987C83.2571 258.134 83.2162 258.303 83.2162 258.496V260.95H82.613ZM91.65 257.903L91.1081 258.056C91.074 257.966 91.0238 257.878 90.9573 257.793C90.8926 257.706 90.8039 257.634 90.6915 257.578C90.579 257.522 90.435 257.494 90.2595 257.494C90.0192 257.494 89.819 257.549 89.6588 257.66C89.5003 257.769 89.4211 257.908 89.4211 258.077C89.4211 258.227 89.4756 258.345 89.5847 258.432C89.6938 258.519 89.8642 258.591 90.0959 258.649L90.6787 258.792C91.0297 258.877 91.2913 259.008 91.4634 259.183C91.6355 259.357 91.7216 259.581 91.7216 259.856C91.7216 260.081 91.6568 260.282 91.5273 260.459C91.3995 260.636 91.2206 260.776 90.9905 260.878C90.7605 260.98 90.493 261.031 90.1879 261.031C89.7875 261.031 89.456 260.944 89.1936 260.771C88.9312 260.597 88.765 260.343 88.6952 260.009L89.2677 259.866C89.3223 260.077 89.4254 260.236 89.577 260.341C89.7304 260.447 89.9306 260.5 90.1777 260.5C90.4589 260.5 90.6821 260.44 90.8474 260.321C91.0144 260.2 91.0979 260.055 91.0979 259.886C91.0979 259.75 91.0502 259.636 90.9547 259.544C90.8593 259.45 90.7128 259.38 90.5151 259.334L89.8607 259.181C89.5012 259.096 89.2371 258.964 89.0684 258.785C88.9014 258.604 88.8179 258.378 88.8179 258.107C88.8179 257.886 88.8801 257.69 89.0045 257.519C89.1306 257.349 89.3018 257.215 89.5182 257.118C89.7364 257.021 89.9834 256.972 90.2595 256.972C90.648 256.972 90.953 257.058 91.1746 257.228C91.3978 257.398 91.5563 257.623 91.65 257.903ZM95.3391 260.95V261.512H92.0673V260.95H95.3391ZM98.6651 257.903L98.1233 258.056C98.0892 257.966 98.0389 257.878 97.9724 257.793C97.9077 257.706 97.8191 257.634 97.7066 257.578C97.5941 257.522 97.4502 257.494 97.2746 257.494C97.0344 257.494 96.8341 257.549 96.674 257.66C96.5155 257.769 96.4362 257.908 96.4362 258.077C96.4362 258.227 96.4908 258.345 96.5998 258.432C96.7089 258.519 96.8793 258.591 97.111 258.649L97.6938 258.792C98.0449 258.877 98.3064 259.008 98.4785 259.183C98.6507 259.357 98.7367 259.581 98.7367 259.856C98.7367 260.081 98.672 260.282 98.5424 260.459C98.4146 260.636 98.2357 260.776 98.0057 260.878C97.7756 260.98 97.5081 261.031 97.2031 261.031C96.8026 261.031 96.4712 260.944 96.2088 260.771C95.9463 260.597 95.7802 260.343 95.7103 260.009L96.2829 259.866C96.3374 260.077 96.4405 260.236 96.5922 260.341C96.7455 260.447 96.9458 260.5 97.1928 260.5C97.474 260.5 97.6972 260.44 97.8625 260.321C98.0295 260.2 98.113 260.055 98.113 259.886C98.113 259.75 98.0653 259.636 97.9699 259.544C97.8745 259.45 97.7279 259.38 97.5302 259.334L96.8759 259.181C96.5163 259.096 96.2522 258.964 96.0835 258.785C95.9165 258.604 95.833 258.378 95.833 258.107C95.833 257.886 95.8952 257.69 96.0196 257.519C96.1457 257.349 96.317 257.215 96.5334 257.118C96.7515 257.021 96.9986 256.972 97.2746 256.972C97.6632 256.972 97.9682 257.058 98.1897 257.228C98.4129 257.398 98.5714 257.623 98.6651 257.903ZM102.661 262.33C102.139 262.33 101.679 262.258 101.278 262.115C100.878 261.974 100.541 261.765 100.268 261.489C99.9958 261.213 99.7896 260.875 99.6499 260.474C99.5101 260.074 99.4403 259.615 99.4403 259.099C99.4403 258.6 99.511 258.153 99.6524 257.76C99.7956 257.366 100.003 257.032 100.274 256.758C100.546 256.482 100.877 256.271 101.265 256.126C101.656 255.981 102.097 255.909 102.589 255.909C103.068 255.909 103.487 255.987 103.847 256.144C104.208 256.299 104.51 256.51 104.752 256.776C104.995 257.04 105.178 257.337 105.299 257.668C105.421 257.998 105.483 258.339 105.483 258.69C105.483 258.937 105.471 259.188 105.447 259.442C105.423 259.695 105.373 259.929 105.296 260.142C105.22 260.353 105.101 260.524 104.941 260.653C104.782 260.783 104.568 260.847 104.297 260.847C104.178 260.847 104.046 260.829 103.903 260.791C103.76 260.754 103.633 260.691 103.522 260.605C103.412 260.518 103.346 260.401 103.325 260.254H103.295C103.254 260.353 103.191 260.447 103.106 260.536C103.022 260.624 102.912 260.695 102.776 260.748C102.641 260.8 102.477 260.823 102.283 260.817C102.061 260.808 101.866 260.759 101.697 260.668C101.529 260.576 101.387 260.452 101.273 260.295C101.161 260.137 101.075 259.954 101.017 259.746C100.961 259.536 100.933 259.31 100.933 259.068C100.933 258.838 100.967 258.628 101.035 258.437C101.103 258.246 101.198 258.079 101.319 257.936C101.442 257.793 101.585 257.679 101.748 257.593C101.914 257.507 102.092 257.453 102.283 257.432C102.453 257.415 102.608 257.423 102.748 257.455C102.888 257.486 103.003 257.533 103.093 257.596C103.183 257.657 103.24 257.726 103.264 257.801H103.295V257.514H103.837V259.825C103.837 259.968 103.877 260.094 103.957 260.203C104.037 260.312 104.154 260.367 104.307 260.367C104.481 260.367 104.614 260.307 104.706 260.188C104.8 260.069 104.863 259.885 104.897 259.636C104.933 259.387 104.951 259.068 104.951 258.68C104.951 258.451 104.92 258.227 104.857 258.005C104.795 257.782 104.702 257.573 104.575 257.379C104.451 257.184 104.293 257.013 104.103 256.865C103.912 256.717 103.688 256.601 103.43 256.517C103.175 256.432 102.884 256.39 102.559 256.39C102.158 256.39 101.8 256.452 101.483 256.576C101.167 256.699 100.899 256.879 100.677 257.115C100.458 257.351 100.29 257.637 100.174 257.974C100.06 258.31 100.003 258.692 100.003 259.119C100.003 259.554 100.06 259.94 100.174 260.277C100.29 260.615 100.46 260.899 100.685 261.131C100.912 261.363 101.192 261.538 101.526 261.658C101.86 261.779 102.245 261.839 102.681 261.839C102.869 261.839 103.054 261.821 103.236 261.785C103.418 261.75 103.579 261.71 103.719 261.668C103.859 261.625 103.959 261.594 104.021 261.573L104.164 262.044C104.058 262.088 103.92 262.132 103.75 262.176C103.581 262.221 103.4 262.257 103.208 262.286C103.017 262.315 102.835 262.33 102.661 262.33ZM102.364 260.295C102.593 260.295 102.778 260.249 102.919 260.157C103.061 260.065 103.164 259.926 103.228 259.741C103.293 259.555 103.325 259.321 103.325 259.038C103.325 258.751 103.29 258.528 103.218 258.368C103.147 258.208 103.041 258.095 102.901 258.031C102.761 257.966 102.589 257.933 102.385 257.933C102.191 257.933 102.024 257.985 101.886 258.087C101.75 258.187 101.645 258.322 101.572 258.491C101.5 258.658 101.465 258.84 101.465 259.038C101.465 259.256 101.494 259.461 101.552 259.654C101.61 259.845 101.704 260 101.835 260.119C101.967 260.236 102.143 260.295 102.364 260.295ZM107.981 261.031C107.613 261.031 107.296 260.944 107.03 260.771C106.764 260.597 106.56 260.357 106.416 260.052C106.273 259.747 106.202 259.399 106.202 259.007C106.202 258.608 106.275 258.256 106.422 257.951C106.57 257.645 106.776 257.405 107.04 257.233C107.306 257.059 107.616 256.972 107.971 256.972C108.247 256.972 108.495 257.023 108.717 257.126C108.938 257.228 109.12 257.371 109.261 257.555C109.403 257.739 109.491 257.954 109.525 258.199H108.921C108.875 258.02 108.773 257.862 108.615 257.724C108.458 257.584 108.247 257.514 107.981 257.514C107.746 257.514 107.539 257.576 107.362 257.698C107.187 257.819 107.049 257.991 106.951 258.212C106.854 258.432 106.805 258.69 106.805 258.987C106.805 259.29 106.853 259.554 106.948 259.779C107.045 260.004 107.182 260.179 107.357 260.303C107.534 260.427 107.742 260.489 107.981 260.489C108.138 260.489 108.28 260.462 108.408 260.408C108.535 260.353 108.644 260.275 108.732 260.173C108.821 260.07 108.884 259.948 108.921 259.804H109.525C109.491 260.036 109.406 260.245 109.272 260.431C109.139 260.615 108.962 260.761 108.742 260.87C108.524 260.978 108.27 261.031 107.981 261.031ZM112.001 261.031C111.647 261.031 111.336 260.947 111.068 260.778C110.803 260.61 110.595 260.374 110.445 260.07C110.297 259.767 110.222 259.413 110.222 259.007C110.222 258.598 110.297 258.241 110.445 257.936C110.595 257.631 110.803 257.394 111.068 257.225C111.336 257.057 111.647 256.972 112.001 256.972C112.356 256.972 112.666 257.057 112.932 257.225C113.199 257.394 113.407 257.631 113.556 257.936C113.705 258.241 113.78 258.598 113.78 259.007C113.78 259.413 113.705 259.767 113.556 260.07C113.407 260.374 113.199 260.61 112.932 260.778C112.666 260.947 112.356 261.031 112.001 261.031ZM112.001 260.489C112.271 260.489 112.492 260.42 112.666 260.282C112.84 260.144 112.968 259.963 113.052 259.738C113.135 259.513 113.177 259.269 113.177 259.007C113.177 258.745 113.135 258.5 113.052 258.273C112.968 258.047 112.84 257.864 112.666 257.724C112.492 257.584 112.271 257.514 112.001 257.514C111.732 257.514 111.511 257.584 111.337 257.724C111.163 257.864 111.034 258.047 110.951 258.273C110.867 258.5 110.826 258.745 110.826 259.007C110.826 259.269 110.867 259.513 110.951 259.738C111.034 259.963 111.163 260.144 111.337 260.282C111.511 260.42 111.732 260.489 112.001 260.489ZM114.701 260.95V257.023H115.284V257.637H115.335C115.417 257.427 115.549 257.265 115.731 257.149C115.914 257.031 116.133 256.972 116.388 256.972C116.647 256.972 116.863 257.031 117.035 257.149C117.209 257.265 117.344 257.427 117.441 257.637H117.482C117.583 257.434 117.734 257.273 117.935 257.154C118.136 257.033 118.377 256.972 118.658 256.972C119.009 256.972 119.296 257.082 119.519 257.302C119.743 257.52 119.854 257.86 119.854 258.322V260.95H119.251V258.322C119.251 258.032 119.172 257.825 119.013 257.701C118.855 257.576 118.668 257.514 118.454 257.514C118.178 257.514 117.964 257.598 117.812 257.765C117.66 257.93 117.585 258.14 117.585 258.394V260.95H116.971V258.261C116.971 258.037 116.899 257.858 116.754 257.721C116.609 257.583 116.422 257.514 116.194 257.514C116.037 257.514 115.891 257.556 115.754 257.639C115.62 257.723 115.511 257.839 115.427 257.987C115.345 258.134 115.305 258.303 115.305 258.496V260.95H114.701ZM120.957 262.422V257.023H121.54V257.647H121.612C121.656 257.579 121.717 257.492 121.796 257.386C121.876 257.279 121.99 257.184 122.138 257.1C122.288 257.015 122.491 256.972 122.747 256.972C123.077 256.972 123.369 257.055 123.621 257.22C123.873 257.386 124.07 257.62 124.211 257.923C124.353 258.227 124.423 258.584 124.423 258.997C124.423 259.413 124.353 259.773 124.211 260.078C124.07 260.381 123.874 260.616 123.623 260.783C123.373 260.949 123.084 261.031 122.757 261.031C122.505 261.031 122.303 260.99 122.151 260.906C121.999 260.821 121.883 260.725 121.801 260.617C121.719 260.508 121.656 260.418 121.612 260.346H121.561V262.422H120.957ZM121.55 258.987C121.55 259.283 121.594 259.545 121.681 259.771C121.768 259.996 121.895 260.173 122.062 260.3C122.229 260.426 122.433 260.489 122.675 260.489C122.927 260.489 123.138 260.423 123.306 260.29C123.477 260.155 123.605 259.975 123.69 259.748C123.777 259.52 123.82 259.266 123.82 258.987C123.82 258.71 123.777 258.462 123.692 258.24C123.609 258.017 123.482 257.841 123.311 257.711C123.143 257.58 122.931 257.514 122.675 257.514C122.43 257.514 122.223 257.576 122.056 257.701C121.889 257.824 121.763 257.996 121.678 258.217C121.593 258.437 121.55 258.693 121.55 258.987ZM126.499 261.042C126.25 261.042 126.024 260.995 125.821 260.901C125.619 260.806 125.458 260.668 125.338 260.489C125.219 260.309 125.159 260.091 125.159 259.835C125.159 259.61 125.204 259.428 125.292 259.288C125.381 259.147 125.499 259.036 125.648 258.956C125.796 258.876 125.96 258.816 126.138 258.777C126.319 258.736 126.501 258.704 126.683 258.68C126.921 258.649 127.115 258.626 127.263 258.611C127.413 258.594 127.522 258.566 127.59 258.526C127.66 258.487 127.695 258.419 127.695 258.322V258.301C127.695 258.049 127.626 257.853 127.488 257.714C127.352 257.574 127.145 257.504 126.867 257.504C126.579 257.504 126.353 257.567 126.19 257.693C126.026 257.819 125.911 257.954 125.844 258.097L125.272 257.893C125.374 257.654 125.511 257.468 125.681 257.335C125.853 257.201 126.04 257.107 126.243 257.054C126.448 257 126.649 256.972 126.846 256.972C126.973 256.972 127.117 256.988 127.281 257.018C127.446 257.047 127.606 257.108 127.759 257.2C127.914 257.292 128.043 257.431 128.145 257.616C128.247 257.802 128.298 258.051 128.298 258.363V260.95H127.695V260.418H127.664C127.624 260.503 127.555 260.594 127.46 260.691C127.365 260.789 127.238 260.871 127.079 260.939C126.921 261.008 126.727 261.042 126.499 261.042ZM126.591 260.5C126.829 260.5 127.031 260.453 127.194 260.359C127.359 260.265 127.484 260.144 127.567 259.996C127.652 259.848 127.695 259.692 127.695 259.528V258.976C127.67 259.007 127.613 259.035 127.526 259.061C127.441 259.085 127.342 259.106 127.23 259.125C127.119 259.142 127.011 259.157 126.905 259.171C126.801 259.182 126.717 259.193 126.652 259.201C126.495 259.222 126.349 259.255 126.213 259.301C126.078 259.345 125.969 259.413 125.885 259.503C125.804 259.591 125.763 259.712 125.763 259.866C125.763 260.075 125.84 260.234 125.995 260.341C126.152 260.447 126.351 260.5 126.591 260.5ZM130.003 258.588V260.95H129.399V257.023H129.982V257.637H130.033C130.125 257.438 130.265 257.277 130.452 257.156C130.64 257.034 130.882 256.972 131.178 256.972C131.444 256.972 131.677 257.027 131.876 257.136C132.076 257.243 132.231 257.407 132.341 257.627C132.452 257.845 132.508 258.121 132.508 258.455V260.95H131.904V258.496C131.904 258.187 131.824 257.947 131.664 257.775C131.504 257.601 131.284 257.514 131.005 257.514C130.812 257.514 130.64 257.556 130.488 257.639C130.338 257.723 130.22 257.845 130.133 258.005C130.046 258.165 130.003 258.359 130.003 258.588ZM133.858 262.422C133.756 262.422 133.664 262.413 133.584 262.396C133.504 262.381 133.449 262.366 133.418 262.35L133.572 261.819C133.718 261.856 133.848 261.87 133.96 261.86C134.072 261.849 134.172 261.799 134.259 261.709C134.348 261.62 134.429 261.476 134.502 261.277L134.614 260.97L133.163 257.023H133.817L134.901 260.152H134.942L136.025 257.023H136.68L135.013 261.522C134.938 261.725 134.845 261.893 134.735 262.026C134.624 262.16 134.495 262.26 134.349 262.325C134.204 262.39 134.04 262.422 133.858 262.422ZM137.67 260.99C137.543 260.99 137.435 260.945 137.345 260.855C137.255 260.765 137.209 260.656 137.209 260.53C137.209 260.404 137.255 260.296 137.345 260.206C137.435 260.115 137.543 260.07 137.67 260.07C137.796 260.07 137.904 260.115 137.994 260.206C138.084 260.296 138.13 260.404 138.13 260.53C138.13 260.614 138.108 260.691 138.066 260.76C138.025 260.83 137.969 260.887 137.9 260.929C137.831 260.97 137.755 260.99 137.67 260.99ZM140.807 261.031C140.439 261.031 140.122 260.944 139.856 260.771C139.59 260.597 139.386 260.357 139.243 260.052C139.1 259.747 139.028 259.399 139.028 259.007C139.028 258.608 139.101 258.256 139.248 257.951C139.396 257.645 139.602 257.405 139.866 257.233C140.132 257.059 140.442 256.972 140.797 256.972C141.073 256.972 141.322 257.023 141.543 257.126C141.765 257.228 141.946 257.371 142.088 257.555C142.229 257.739 142.317 257.954 142.351 258.199H141.748C141.702 258.02 141.599 257.862 141.441 257.724C141.284 257.584 141.073 257.514 140.807 257.514C140.572 257.514 140.366 257.576 140.189 257.698C140.013 257.819 139.876 257.991 139.777 258.212C139.68 258.432 139.631 258.69 139.631 258.987C139.631 259.29 139.679 259.554 139.774 259.779C139.872 260.004 140.008 260.179 140.183 260.303C140.361 260.427 140.569 260.489 140.807 260.489C140.964 260.489 141.106 260.462 141.234 260.408C141.362 260.353 141.47 260.275 141.559 260.173C141.647 260.07 141.71 259.948 141.748 259.804H142.351C142.317 260.036 142.233 260.245 142.098 260.431C141.965 260.615 141.789 260.761 141.569 260.87C141.351 260.978 141.097 261.031 140.807 261.031ZM144.828 261.031C144.473 261.031 144.162 260.947 143.895 260.778C143.629 260.61 143.421 260.374 143.271 260.07C143.123 259.767 143.049 259.413 143.049 259.007C143.049 258.598 143.123 258.241 143.271 257.936C143.421 257.631 143.629 257.394 143.895 257.225C144.162 257.057 144.473 256.972 144.828 256.972C145.182 256.972 145.492 257.057 145.758 257.225C146.026 257.394 146.234 257.631 146.382 257.936C146.532 258.241 146.607 258.598 146.607 259.007C146.607 259.413 146.532 259.767 146.382 260.07C146.234 260.374 146.026 260.61 145.758 260.778C145.492 260.947 145.182 261.031 144.828 261.031ZM144.828 260.489C145.097 260.489 145.319 260.42 145.492 260.282C145.666 260.144 145.795 259.963 145.878 259.738C145.962 259.513 146.004 259.269 146.004 259.007C146.004 258.745 145.962 258.5 145.878 258.273C145.795 258.047 145.666 257.864 145.492 257.724C145.319 257.584 145.097 257.514 144.828 257.514C144.559 257.514 144.337 257.584 144.163 257.724C143.989 257.864 143.861 258.047 143.777 258.273C143.694 258.5 143.652 258.745 143.652 259.007C143.652 259.269 143.694 259.513 143.777 259.738C143.861 259.963 143.989 260.144 144.163 260.282C144.337 260.42 144.559 260.489 144.828 260.489ZM147.528 260.95V257.023H148.11V257.637H148.162C148.243 257.427 148.375 257.265 148.558 257.149C148.74 257.031 148.959 256.972 149.215 256.972C149.474 256.972 149.689 257.031 149.861 257.149C150.035 257.265 150.171 257.427 150.268 257.637H150.309C150.409 257.434 150.56 257.273 150.761 257.154C150.962 257.033 151.203 256.972 151.484 256.972C151.835 256.972 152.123 257.082 152.346 257.302C152.569 257.52 152.681 257.86 152.681 258.322V260.95H152.077V258.322C152.077 258.032 151.998 257.825 151.84 257.701C151.681 257.576 151.495 257.514 151.28 257.514C151.004 257.514 150.79 257.598 150.638 257.765C150.487 257.93 150.411 258.14 150.411 258.394V260.95H149.797V258.261C149.797 258.037 149.725 257.858 149.58 257.721C149.435 257.583 149.249 257.514 149.02 257.514C148.864 257.514 148.717 257.556 148.581 257.639C148.446 257.723 148.337 257.839 148.254 257.987C148.172 258.134 148.131 258.303 148.131 258.496V260.95H147.528Z" fill="#535352"/>
<path d="M76.6101 268.729V265.355H77.1827V268.729H76.6101ZM75.2094 267.329V266.756H78.5834V267.329H75.2094ZM81.5184 269.721C81.1333 269.721 80.8053 269.616 80.5343 269.407C80.2634 269.196 80.0563 268.89 79.9132 268.489C79.7701 268.087 79.6985 267.601 79.6985 267.032C79.6985 266.466 79.7701 265.983 79.9132 265.583C80.0581 265.181 80.2659 264.874 80.5369 264.663C80.8095 264.45 81.1367 264.343 81.5184 264.343C81.9001 264.343 82.2265 264.45 82.4974 264.663C82.77 264.874 82.9779 265.181 83.1211 265.583C83.2659 265.983 83.3383 266.466 83.3383 267.032C83.3383 267.601 83.2668 268.087 83.1236 268.489C82.9805 268.89 82.7735 269.196 82.5025 269.407C82.2316 269.616 81.9035 269.721 81.5184 269.721ZM81.5184 269.159C81.9001 269.159 82.1966 268.975 82.4079 268.607C82.6192 268.239 82.7249 267.714 82.7249 267.032C82.7249 266.579 82.6763 266.193 82.5792 265.874C82.4838 265.556 82.3457 265.313 82.1651 265.146C81.9862 264.979 81.7706 264.895 81.5184 264.895C81.1401 264.895 80.8445 265.082 80.6315 265.455C80.4185 265.827 80.312 266.352 80.312 267.032C80.312 267.486 80.3597 267.871 80.4551 268.188C80.5505 268.505 80.6877 268.746 80.8666 268.911C81.0473 269.076 81.2645 269.159 81.5184 269.159ZM86.15 264.415V269.65H85.5161V265.079H85.4854L84.2074 265.928V265.284L85.5161 264.415H86.15ZM91.3567 269.721C91.0057 269.721 90.6956 269.659 90.4263 269.535C90.1588 269.409 89.9501 269.236 89.8001 269.016C89.6501 268.794 89.576 268.542 89.5777 268.259C89.576 268.038 89.6195 267.833 89.7081 267.646C89.7967 267.457 89.9177 267.299 90.071 267.173C90.2261 267.045 90.3991 266.964 90.5899 266.93V266.899C90.3394 266.835 90.1401 266.694 89.9918 266.478C89.8435 266.259 89.7703 266.012 89.772 265.734C89.7703 265.468 89.8376 265.23 89.9739 265.021C90.1102 264.811 90.2977 264.646 90.5362 264.525C90.7765 264.404 91.05 264.343 91.3567 264.343C91.6601 264.343 91.931 264.404 92.1696 264.525C92.4081 264.646 92.5956 264.811 92.7319 265.021C92.8699 265.23 92.9398 265.468 92.9415 265.734C92.9398 266.012 92.864 266.259 92.714 266.478C92.5658 266.694 92.3689 266.835 92.1236 266.899V266.93C92.3127 266.964 92.4831 267.045 92.6348 267.173C92.7864 267.299 92.9074 267.457 92.9977 267.646C93.0881 267.833 93.1341 268.038 93.1358 268.259C93.1341 268.542 93.0574 268.794 92.9057 269.016C92.7558 269.236 92.547 269.409 92.2795 269.535C92.0137 269.659 91.7061 269.721 91.3567 269.721ZM91.3567 269.159C91.5936 269.159 91.7981 269.121 91.9702 269.044C92.1423 268.967 92.2752 268.859 92.3689 268.719C92.4627 268.58 92.5104 268.416 92.5121 268.228C92.5104 268.031 92.4593 267.856 92.3587 267.704C92.2582 267.553 92.121 267.434 91.9472 267.347C91.7751 267.26 91.5783 267.216 91.3567 267.216C91.1335 267.216 90.9341 267.26 90.7586 267.347C90.5848 267.434 90.4476 267.553 90.3471 267.704C90.2483 267.856 90.1997 268.031 90.2014 268.228C90.1997 268.416 90.2449 268.58 90.3369 268.719C90.4306 268.859 90.5644 268.967 90.7382 269.044C90.912 269.121 91.1182 269.159 91.3567 269.159ZM91.3567 266.674C91.5442 266.674 91.7103 266.637 91.8552 266.562C92.0017 266.487 92.1167 266.382 92.2002 266.248C92.2837 266.113 92.3263 265.955 92.3281 265.775C92.3263 265.597 92.2846 265.443 92.2028 265.312C92.121 265.179 92.0077 265.077 91.8628 265.005C91.718 264.932 91.5493 264.895 91.3567 264.895C91.1608 264.895 90.9895 264.932 90.843 265.005C90.6964 265.077 90.5831 265.179 90.503 265.312C90.4229 265.443 90.3837 265.597 90.3854 265.775C90.3837 265.955 90.4238 266.113 90.5056 266.248C90.5891 266.382 90.7041 266.487 90.8506 266.562C90.9972 266.637 91.1659 266.674 91.3567 266.674ZM95.7819 264.343C95.9967 264.345 96.2114 264.386 96.4261 264.466C96.6408 264.546 96.8368 264.679 97.014 264.865C97.1912 265.049 97.3335 265.3 97.4408 265.619C97.5482 265.937 97.6019 266.337 97.6019 266.818C97.6019 267.283 97.5576 267.696 97.469 268.057C97.382 268.417 97.2559 268.72 97.0907 268.967C96.9271 269.214 96.7277 269.402 96.4925 269.53C96.2591 269.657 95.995 269.721 95.7002 269.721C95.4071 269.721 95.1455 269.663 94.9154 269.547C94.6871 269.43 94.4996 269.267 94.3531 269.059C94.2083 268.85 94.1154 268.607 94.0745 268.331H94.6982C94.7544 268.571 94.866 268.77 95.033 268.926C95.2017 269.081 95.4241 269.159 95.7002 269.159C96.104 269.159 96.4227 268.983 96.6561 268.63C96.8913 268.277 97.0089 267.779 97.0089 267.134H96.968C96.8725 267.278 96.7592 267.401 96.628 267.505C96.4968 267.609 96.3511 267.689 96.1909 267.745C96.0307 267.802 95.8603 267.83 95.6797 267.83C95.3798 267.83 95.1046 267.756 94.8541 267.607C94.6053 267.457 94.4059 267.252 94.256 266.991C94.1077 266.729 94.0336 266.429 94.0336 266.092C94.0336 265.771 94.1052 265.478 94.2483 265.212C94.3931 264.945 94.5959 264.732 94.8566 264.573C95.1191 264.415 95.4275 264.338 95.7819 264.343ZM95.7819 264.906C95.5672 264.906 95.3738 264.959 95.2017 265.067C95.0313 265.172 94.8958 265.315 94.7953 265.496C94.6965 265.675 94.647 265.873 94.647 266.092C94.647 266.31 94.6948 266.508 94.7902 266.687C94.8873 266.864 95.0194 267.006 95.1864 267.111C95.3551 267.215 95.5468 267.267 95.7615 267.267C95.9234 267.267 96.0742 267.236 96.2139 267.173C96.3537 267.108 96.4755 267.02 96.5794 266.91C96.6851 266.797 96.7677 266.67 96.8274 266.529C96.887 266.386 96.9168 266.236 96.9168 266.081C96.9168 265.877 96.8674 265.685 96.7686 265.506C96.6715 265.327 96.5368 265.182 96.3647 265.072C96.1943 264.961 96.0001 264.906 95.7819 264.906ZM98.607 269.65V269.19L100.335 267.298C100.538 267.077 100.705 266.884 100.836 266.72C100.967 266.555 101.064 266.4 101.127 266.255C101.192 266.109 101.224 265.955 101.224 265.795C101.224 265.611 101.18 265.452 101.092 265.317C101.005 265.182 100.885 265.079 100.734 265.005C100.582 264.932 100.412 264.895 100.222 264.895C100.021 264.895 99.8459 264.937 99.6959 265.021C99.5477 265.102 99.4327 265.217 99.3509 265.366C99.2708 265.514 99.2307 265.688 99.2307 265.887H98.6275C98.6275 265.58 98.6982 265.311 98.8396 265.079C98.9811 264.848 99.1736 264.667 99.4173 264.538C99.6627 264.408 99.9379 264.343 100.243 264.343C100.55 264.343 100.821 264.408 101.058 264.538C101.295 264.667 101.481 264.842 101.616 265.062C101.75 265.281 101.817 265.526 101.817 265.795C101.817 265.988 101.783 266.176 101.713 266.36C101.645 266.542 101.525 266.746 101.355 266.971C101.186 267.194 100.952 267.467 100.652 267.789L99.4761 269.046V269.087H101.909V269.65H98.607ZM104.806 264.415V269.65H104.172V265.079H104.141L102.863 265.928V265.284L104.172 264.415H104.806ZM110.002 264.343C110.217 264.345 110.431 264.386 110.646 264.466C110.861 264.546 111.057 264.679 111.234 264.865C111.411 265.049 111.554 265.3 111.661 265.619C111.768 265.937 111.822 266.337 111.822 266.818C111.822 267.283 111.778 267.696 111.689 268.057C111.602 268.417 111.476 268.72 111.311 268.967C111.147 269.214 110.948 269.402 110.713 269.53C110.479 269.657 110.215 269.721 109.92 269.721C109.627 269.721 109.366 269.663 109.136 269.547C108.907 269.43 108.72 269.267 108.573 269.059C108.428 268.85 108.335 268.607 108.295 268.331H108.918C108.974 268.571 109.086 268.77 109.253 268.926C109.422 269.081 109.644 269.159 109.92 269.159C110.324 269.159 110.643 268.983 110.876 268.63C111.111 268.277 111.229 267.779 111.229 267.134H111.188C111.093 267.278 110.979 267.401 110.848 267.505C110.717 267.609 110.571 267.689 110.411 267.745C110.251 267.802 110.08 267.83 109.9 267.83C109.6 267.83 109.325 267.756 109.074 267.607C108.825 267.457 108.626 267.252 108.476 266.991C108.328 266.729 108.254 266.429 108.254 266.092C108.254 265.771 108.325 265.478 108.468 265.212C108.613 264.945 108.816 264.732 109.077 264.573C109.339 264.415 109.648 264.338 110.002 264.343ZM110.002 264.906C109.787 264.906 109.594 264.959 109.422 265.067C109.251 265.172 109.116 265.315 109.015 265.496C108.917 265.675 108.867 265.873 108.867 266.092C108.867 266.31 108.915 266.508 109.01 266.687C109.107 266.864 109.239 267.006 109.406 267.111C109.575 267.215 109.767 267.267 109.982 267.267C110.143 267.267 110.294 267.236 110.434 267.173C110.574 267.108 110.696 267.02 110.8 266.91C110.905 266.797 110.988 266.67 111.047 266.529C111.107 266.386 111.137 266.236 111.137 266.081C111.137 265.877 111.087 265.685 110.989 265.506C110.892 265.327 110.757 265.182 110.585 265.072C110.414 264.961 110.22 264.906 110.002 264.906ZM114.535 269.721C114.149 269.721 113.821 269.616 113.55 269.407C113.28 269.196 113.072 268.89 112.929 268.489C112.786 268.087 112.715 267.601 112.715 267.032C112.715 266.466 112.786 265.983 112.929 265.583C113.074 265.181 113.282 264.874 113.553 264.663C113.826 264.45 114.153 264.343 114.535 264.343C114.916 264.343 115.243 264.45 115.514 264.663C115.786 264.874 115.994 265.181 116.137 265.583C116.282 265.983 116.354 266.466 116.354 267.032C116.354 267.601 116.283 268.087 116.14 268.489C115.997 268.89 115.79 269.196 115.519 269.407C115.248 269.616 114.92 269.721 114.535 269.721ZM114.535 269.159C114.916 269.159 115.213 268.975 115.424 268.607C115.635 268.239 115.741 267.714 115.741 267.032C115.741 266.579 115.692 266.193 115.595 265.874C115.5 265.556 115.362 265.313 115.181 265.146C115.002 264.979 114.787 264.895 114.535 264.895C114.156 264.895 113.861 265.082 113.648 265.455C113.435 265.827 113.328 266.352 113.328 267.032C113.328 267.486 113.376 267.871 113.471 268.188C113.567 268.505 113.704 268.746 113.883 268.911C114.063 269.076 114.281 269.159 114.535 269.159ZM119.166 264.415V269.65H118.532V265.079H118.502L117.224 265.928V265.284L118.532 264.415H119.166ZM120.672 269.65V269.19L122.4 267.298C122.602 267.077 122.769 266.884 122.901 266.72C123.032 266.555 123.129 266.4 123.192 266.255C123.257 266.109 123.289 265.955 123.289 265.795C123.289 265.611 123.245 265.452 123.156 265.317C123.069 265.182 122.95 265.079 122.798 265.005C122.647 264.932 122.476 264.895 122.287 264.895C122.086 264.895 121.911 264.937 121.761 265.021C121.612 265.102 121.497 265.217 121.416 265.366C121.335 265.514 121.295 265.688 121.295 265.887H120.692C120.692 265.58 120.763 265.311 120.904 265.079C121.046 264.848 121.238 264.667 121.482 264.538C121.727 264.408 122.003 264.343 122.308 264.343C122.614 264.343 122.886 264.408 123.123 264.538C123.36 264.667 123.546 264.842 123.68 265.062C123.815 265.281 123.882 265.526 123.882 265.795C123.882 265.988 123.847 266.176 123.777 266.36C123.709 266.542 123.59 266.746 123.419 266.971C123.251 267.194 123.016 267.467 122.717 267.789L121.541 269.046V269.087H123.974V269.65H120.672ZM128.731 269.721C128.38 269.721 128.07 269.659 127.801 269.535C127.533 269.409 127.324 269.236 127.174 269.016C127.024 268.794 126.95 268.542 126.952 268.259C126.95 268.038 126.994 267.833 127.082 267.646C127.171 267.457 127.292 267.299 127.445 267.173C127.6 267.045 127.773 266.964 127.964 266.93V266.899C127.714 266.835 127.514 266.694 127.366 266.478C127.218 266.259 127.145 266.012 127.146 265.734C127.145 265.468 127.212 265.23 127.348 265.021C127.484 264.811 127.672 264.646 127.91 264.525C128.151 264.404 128.424 264.343 128.731 264.343C129.034 264.343 129.305 264.404 129.544 264.525C129.782 264.646 129.97 264.811 130.106 265.021C130.244 265.23 130.314 265.468 130.316 265.734C130.314 266.012 130.238 266.259 130.088 266.478C129.94 266.694 129.743 266.835 129.498 266.899V266.93C129.687 266.964 129.857 267.045 130.009 267.173C130.161 267.299 130.282 267.457 130.372 267.646C130.462 267.833 130.508 268.038 130.51 268.259C130.508 268.542 130.432 268.794 130.28 269.016C130.13 269.236 129.921 269.409 129.654 269.535C129.388 269.659 129.08 269.721 128.731 269.721ZM128.731 269.159C128.968 269.159 129.172 269.121 129.344 269.044C129.517 268.967 129.649 268.859 129.743 268.719C129.837 268.58 129.885 268.416 129.886 268.228C129.885 268.031 129.834 267.856 129.733 267.704C129.632 267.553 129.495 267.434 129.321 267.347C129.149 267.26 128.953 267.216 128.731 267.216C128.508 267.216 128.308 267.26 128.133 267.347C127.959 267.434 127.822 267.553 127.721 267.704C127.623 267.856 127.574 268.031 127.576 268.228C127.574 268.416 127.619 268.58 127.711 268.719C127.805 268.859 127.939 268.967 128.112 269.044C128.286 269.121 128.492 269.159 128.731 269.159ZM128.731 266.674C128.918 266.674 129.085 266.637 129.229 266.562C129.376 266.487 129.491 266.382 129.575 266.248C129.658 266.113 129.701 265.955 129.702 265.775C129.701 265.597 129.659 265.443 129.577 265.312C129.495 265.179 129.382 265.077 129.237 265.005C129.092 264.932 128.924 264.895 128.731 264.895C128.535 264.895 128.364 264.932 128.217 265.005C128.071 265.077 127.957 265.179 127.877 265.312C127.797 265.443 127.758 265.597 127.76 265.775C127.758 265.955 127.798 266.113 127.88 266.248C127.963 266.382 128.078 266.487 128.225 266.562C128.371 266.637 128.54 266.674 128.731 266.674ZM133.166 269.721C132.815 269.721 132.505 269.659 132.236 269.535C131.968 269.409 131.76 269.236 131.61 269.016C131.46 268.794 131.386 268.542 131.387 268.259C131.386 268.038 131.429 267.833 131.518 267.646C131.606 267.457 131.727 267.299 131.881 267.173C132.036 267.045 132.209 266.964 132.4 266.93V266.899C132.149 266.835 131.95 266.694 131.801 266.478C131.653 266.259 131.58 266.012 131.582 265.734C131.58 265.468 131.647 265.23 131.784 265.021C131.92 264.811 132.107 264.646 132.346 264.525C132.586 264.404 132.86 264.343 133.166 264.343C133.47 264.343 133.741 264.404 133.979 264.525C134.218 264.646 134.405 264.811 134.542 265.021C134.68 265.23 134.749 265.468 134.751 265.734C134.749 266.012 134.674 266.259 134.524 266.478C134.375 266.694 134.179 266.835 133.933 266.899V266.93C134.122 266.964 134.293 267.045 134.444 267.173C134.596 267.299 134.717 267.457 134.807 267.646C134.898 267.833 134.944 268.038 134.945 268.259C134.944 268.542 134.867 268.794 134.715 269.016C134.565 269.236 134.357 269.409 134.089 269.535C133.823 269.659 133.516 269.721 133.166 269.721ZM133.166 269.159C133.403 269.159 133.608 269.121 133.78 269.044C133.952 268.967 134.085 268.859 134.179 268.719C134.272 268.58 134.32 268.416 134.322 268.228C134.32 268.031 134.269 267.856 134.168 267.704C134.068 267.553 133.931 267.434 133.757 267.347C133.585 267.26 133.388 267.216 133.166 267.216C132.943 267.216 132.744 267.26 132.568 267.347C132.394 267.434 132.257 267.553 132.157 267.704C132.058 267.856 132.009 268.031 132.011 268.228C132.009 268.416 132.055 268.58 132.147 268.719C132.24 268.859 132.374 268.967 132.548 269.044C132.722 269.121 132.928 269.159 133.166 269.159ZM133.166 266.674C133.354 266.674 133.52 266.637 133.665 266.562C133.811 266.487 133.926 266.382 134.01 266.248C134.093 266.113 134.136 265.955 134.138 265.775C134.136 265.597 134.094 265.443 134.012 265.312C133.931 265.179 133.817 265.077 133.673 265.005C133.528 264.932 133.359 264.895 133.166 264.895C132.97 264.895 132.799 264.932 132.653 265.005C132.506 265.077 132.393 265.179 132.313 265.312C132.233 265.443 132.193 265.597 132.195 265.775C132.193 265.955 132.233 266.113 132.315 266.248C132.399 266.382 132.514 266.487 132.66 266.562C132.807 266.637 132.976 266.674 133.166 266.674ZM137.602 269.721C137.251 269.721 136.941 269.659 136.671 269.535C136.404 269.409 136.195 269.236 136.045 269.016C135.895 268.794 135.821 268.542 135.823 268.259C135.821 268.038 135.865 267.833 135.953 267.646C136.042 267.457 136.163 267.299 136.316 267.173C136.471 267.045 136.644 266.964 136.835 266.93V266.899C136.585 266.835 136.385 266.694 136.237 266.478C136.089 266.259 136.015 266.012 136.017 265.734C136.015 265.468 136.083 265.23 136.219 265.021C136.355 264.811 136.543 264.646 136.781 264.525C137.022 264.404 137.295 264.343 137.602 264.343C137.905 264.343 138.176 264.404 138.415 264.525C138.653 264.646 138.841 264.811 138.977 265.021C139.115 265.23 139.185 265.468 139.187 265.734C139.185 266.012 139.109 266.259 138.959 266.478C138.811 266.694 138.614 266.835 138.369 266.899V266.93C138.558 266.964 138.728 267.045 138.88 267.173C139.032 267.299 139.153 267.457 139.243 267.646C139.333 267.833 139.379 268.038 139.381 268.259C139.379 268.542 139.302 268.794 139.151 269.016C139.001 269.236 138.792 269.409 138.525 269.535C138.259 269.659 137.951 269.721 137.602 269.721ZM137.602 269.159C137.839 269.159 138.043 269.121 138.215 269.044C138.387 268.967 138.52 268.859 138.614 268.719C138.708 268.58 138.755 268.416 138.757 268.228C138.755 268.031 138.704 267.856 138.604 267.704C138.503 267.553 138.366 267.434 138.192 267.347C138.02 267.26 137.823 267.216 137.602 267.216C137.379 267.216 137.179 267.26 137.004 267.347C136.83 267.434 136.693 267.553 136.592 267.704C136.493 267.856 136.445 268.031 136.447 268.228C136.445 268.416 136.49 268.58 136.582 268.719C136.676 268.859 136.809 268.967 136.983 269.044C137.157 269.121 137.363 269.159 137.602 269.159ZM137.602 266.674C137.789 266.674 137.955 266.637 138.1 266.562C138.247 266.487 138.362 266.382 138.445 266.248C138.529 266.113 138.571 265.955 138.573 265.775C138.571 265.597 138.53 265.443 138.448 265.312C138.366 265.179 138.253 265.077 138.108 265.005C137.963 264.932 137.794 264.895 137.602 264.895C137.406 264.895 137.235 264.932 137.088 265.005C136.942 265.077 136.828 265.179 136.748 265.312C136.668 265.443 136.629 265.597 136.631 265.775C136.629 265.955 136.669 266.113 136.751 266.248C136.834 266.382 136.949 266.487 137.096 266.562C137.242 266.637 137.411 266.674 137.602 266.674ZM142.037 269.721C141.686 269.721 141.376 269.659 141.107 269.535C140.839 269.409 140.631 269.236 140.481 269.016C140.331 268.794 140.257 268.542 140.258 268.259C140.257 268.038 140.3 267.833 140.389 267.646C140.477 267.457 140.598 267.299 140.752 267.173C140.907 267.045 141.08 266.964 141.27 266.93V266.899C141.02 266.835 140.821 266.694 140.672 266.478C140.524 266.259 140.451 266.012 140.453 265.734C140.451 265.468 140.518 265.23 140.654 265.021C140.791 264.811 140.978 264.646 141.217 264.525C141.457 264.404 141.731 264.343 142.037 264.343C142.341 264.343 142.612 264.404 142.85 264.525C143.089 264.646 143.276 264.811 143.412 265.021C143.55 265.23 143.62 265.468 143.622 265.734C143.62 266.012 143.544 266.259 143.395 266.478C143.246 266.694 143.049 266.835 142.804 266.899V266.93C142.993 266.964 143.164 267.045 143.315 267.173C143.467 267.299 143.588 267.457 143.678 267.646C143.769 267.833 143.815 268.038 143.816 268.259C143.815 268.542 143.738 268.794 143.586 269.016C143.436 269.236 143.228 269.409 142.96 269.535C142.694 269.659 142.387 269.721 142.037 269.721ZM142.037 269.159C142.274 269.159 142.479 269.121 142.651 269.044C142.823 268.967 142.956 268.859 143.049 268.719C143.143 268.58 143.191 268.416 143.193 268.228C143.191 268.031 143.14 267.856 143.039 267.704C142.939 267.553 142.802 267.434 142.628 267.347C142.456 267.26 142.259 267.216 142.037 267.216C141.814 267.216 141.615 267.26 141.439 267.347C141.265 267.434 141.128 267.553 141.028 267.704C140.929 267.856 140.88 268.031 140.882 268.228C140.88 268.416 140.925 268.58 141.017 268.719C141.111 268.859 141.245 268.967 141.419 269.044C141.593 269.121 141.799 269.159 142.037 269.159ZM142.037 266.674C142.225 266.674 142.391 266.637 142.536 266.562C142.682 266.487 142.797 266.382 142.881 266.248C142.964 266.113 143.007 265.955 143.009 265.775C143.007 265.597 142.965 265.443 142.883 265.312C142.802 265.179 142.688 265.077 142.543 265.005C142.399 264.932 142.23 264.895 142.037 264.895C141.841 264.895 141.67 264.932 141.523 265.005C141.377 265.077 141.264 265.179 141.184 265.312C141.103 265.443 141.064 265.597 141.066 265.775C141.064 265.955 141.104 266.113 141.186 266.248C141.27 266.382 141.385 266.487 141.531 266.562C141.678 266.637 141.846 266.674 142.037 266.674Z" fill="#535352"/>
<path d="M104.8 234.7H82.1V236.5H104.8V234.7Z" fill="url(#paint0_linear_15_35)"/>
<path d="M129.5 234.7H106.8V236.5H129.5V234.7Z" fill="#0B7077"/>
<path d="M62.7 144.4L105.8 69.7L149 144.4H62.7Z" fill="#0B7077"/>
<path d="M169.9 62.5L105.8 173.5L41.8 62.5H169.9Z" fill="#FD661F"/>
<mask id="mask0_15_35" style="mask-type:luminance" maskUnits="userSpaceOnUse" x="41" y="15" width="129" height="159">
<path d="M143 62.5V15.7H68.7V62.5H41.8L105.8 173.5L169.9 62.5H143Z" fill="white"/>
</mask>
<g mask="url(#mask0_15_35)">
<path d="M137.4 118.4C126.2 110.2 117.6 105.9 117.6 101.2C117.6 96.6 117.6 90.6 117.6 90.6H106.3H105.5H94.2C94.2 90.6 94.2 96.6 94.2 101.2C94.2 105.8 85.6 110.2 74.4 118.4C63.2 126.6 62.9 146.4 62.9 146.4H105.6H106.5H149.2C149 146.4 148.7 126.5 137.4 118.4Z" fill="url(#paint1_linear_15_35)"/>
<path d="M137.4 118.4C126.2 110.2 117.6 105.9 117.6 101.2C117.6 96.6 117.6 90.6 117.6 90.6H106.3H105.9V146.4H106.3H149C149 146.4 148.7 126.5 137.4 118.4Z" fill="url(#paint2_linear_15_35)"/>
<path d="M124.7 109.4C120.3 106.3 117.6 103.8 117.6 101.2C117.6 96.6 117.6 90.6 117.6 90.6H106.3H105.5H94.2C94.2 90.6 94.2 91.5 94.2 92.8C95 94.6 98.7 102.5 106 106.2C112.4 109.5 119.5 110.7 124.7 109.4Z" fill="url(#paint3_linear_15_35)"/>
<path d="M125.7 73C125.7 73 127.7 68.8 130.9 69.4C134.1 70 133 75.4 131.5 78.3C129.2 82.9 123.6 84.3 123.5 82.6C123.4 80.9 125.7 73 125.7 73Z" fill="url(#paint4_linear_15_35)"/>
<path d="M86 73C86 73 84 68.8 80.8 69.4C77.6 70 78.7 75.4 80.2 78.3C82.5 82.9 88.1 84.3 88.2 82.6C88.3 80.9 86 73 86 73Z" fill="url(#paint5_linear_15_35)"/>
<path d="M82.2 69.5C83.5 75.6 85.9 80.1 87.7 83.3C88 83.2 88.2 83 88.2 82.7C88.3 81 86 73.1 86 73.1C86 73.1 84.6 70 82.2 69.5Z" fill="url(#paint6_linear_15_35)"/>
<path d="M125.7 73C125.7 73 123.4 80.9 123.5 82.6C123.5 82.9 123.7 83.1 124 83.2C125.8 80 128.1 75.5 129.5 69.4C127.1 70 125.7 73 125.7 73Z" fill="url(#paint7_linear_15_35)"/>
<path d="M127.7 57.2C126.1 40.7 112.6 37.5 105.8 37.5C99 37.5 85.5 40.7 83.9 57.2C82.3 73.7 87.8 83.3 90.3 88.5C92.8 93.6 101.1 96.9 105.7 96.9C110.3 96.9 118.6 93.6 121.1 88.5C123.8 83.3 129.3 73.6 127.7 57.2Z" fill="url(#paint8_linear_15_35)"/>
<path d="M121.2 88.4C123.7 83.3 129.2 73.6 127.6 57.1C126 40.6 112.5 37.4 105.7 37.4V96.9C110.5 96.9 118.7 93.6 121.2 88.4Z" fill="url(#paint9_linear_15_35)"/>
<path d="M127.7 57.2C126.1 40.7 112.6 37.5 105.8 37.5C99 37.5 85.5 40.7 83.9 57.2C83.3 63 83.7 68 84.4 72.2C84.5 72 87.7 65.1 88.3 60.9C88.3 60.9 89 62.6 90.1 63.2C91.1 60.8 91.7 56.7 91.5 53.4C91.5 53.4 94.1 57.9 101.8 61.3C101.8 61.3 101.5 57.8 100.8 55.7C107.5 60.8 114.8 62.8 119.5 62.7C119.5 62.7 119.2 60.5 118.2 58.7C118.8 59.5 120.2 60.8 123 61.6C123 61.6 125.2 67.1 127.1 72C127.9 67.7 128.2 62.9 127.7 57.2Z" fill="url(#paint10_linear_15_35)"/>
<path d="M111.9 86H99.7C99.4 86 99.3 86.5 99.4 87C100.5 89.1 103 90.6 105.8 90.6C108.6 90.6 111 89.2 112.2 87.1C112.4 86.7 112.3 86 111.9 86Z" fill="url(#paint11_linear_15_35)"/>
<path d="M111 88.7C110.1 87.4 108.1 86.5 105.9 86.5C103.6 86.5 101.7 87.4 100.7 88.7C102 89.9 103.8 90.6 105.9 90.6C107.9 90.6 109.7 89.8 111 88.7Z" fill="url(#paint12_linear_15_35)"/>
<path d="M111.9 86H99.7C100.1 86.6 100.6 87.2 101.4 87.4C102.8 87.7 105.8 87.7 105.8 87.7C105.8 87.7 108.8 87.7 110.2 87.4C111 87.2 111.6 86.6 111.9 86Z" fill="url(#paint13_linear_15_35)"/>
<path d="M113.8 68.1C112.8 68.8 111.8 70 111.9 71.6C111.9 71.6 112.9 73.3 116.7 73C120 72.7 120.4 69.8 120.4 69.8C119.5 68.2 117.7 66.6 113.8 68.1Z" fill="white"/>
<path d="M97.9 68.1C98.9 68.8 99.9 70 99.8 71.6C99.8 71.6 98.8 73.3 95 73C91.7 72.7 91.3 69.8 91.3 69.8C92.2 68.2 94.1 66.6 97.9 68.1Z" fill="white"/>
<path d="M118.9 70C118.9 71.5 117.7 72.8 116.1 72.8C114.6 72.8 113.3 71.6 113.3 70C113.3 68.5 114.5 67.2 116.1 67.2C117.7 67.2 118.9 68.4 118.9 70Z" fill="url(#paint14_linear_15_35)"/>
<path d="M119.7 69.3C119.7 69.8 119.2 70.1 118.6 70.1C118 70.1 117.5 69.7 117.5 69.3C117.5 68.8 118 68.5 118.6 68.5C119.2 68.4 119.7 68.8 119.7 69.3Z" fill="white"/>
<path d="M111.5 71.1C111.5 71.1 113.3 68 116.5 68C119.4 68 120.5 70.3 120.5 70.3L121.5 69.3C121.5 69.3 119.4 66.8 116.3 67C111.9 67.4 111.5 71.1 111.5 71.1Z" fill="#262B3B"/>
<path d="M109.9 64.5C109.9 64.5 111.8 65.4 115.6 64.3C119.4 63.2 119.6 62.6 122.6 62.4C122.6 62.4 117.6 60.9 114 62.1C111 63.3 109.9 64.5 109.9 64.5Z" fill="#262B3B"/>
<path d="M92.7 70C92.7 71.5 93.9 72.8 95.5 72.8C97 72.8 98.3 71.6 98.3 70C98.3 68.5 97.1 67.2 95.5 67.2C94 67.2 92.7 68.4 92.7 70Z" fill="url(#paint15_linear_15_35)"/>
<path d="M99.1 69.3C99.1 69.8 98.6 70.1 98 70.1C97.4 70.1 96.9 69.7 96.9 69.3C96.9 68.8 97.4 68.5 98 68.5C98.6 68.4 99.1 68.8 99.1 69.3Z" fill="white"/>
<path d="M100.2 71.1C100.2 71.1 98.4 68 95.2 68C92.3 68 91.2 70.3 91.2 70.3L90.2 69.3C90.2 69.3 92.3 66.8 95.4 67C99.7 67.4 100.2 71.1 100.2 71.1Z" fill="#262B3B"/>
<path d="M101.7 64.5C101.7 64.5 99.8 65.4 96 64.3C92.2 63.2 92 62.6 89 62.4C89 62.4 94 60.9 97.6 62.1C100.7 63.3 101.7 64.5 101.7 64.5Z" fill="#262B3B"/>
<path d="M105.8 81.8C105.8 81.8 104.3 81.7 103.3 81.2C103.3 81.2 103.8 83.1 105.8 83.3C107.8 83.1 108.3 81.2 108.3 81.2C107.4 81.6 105.8 81.8 105.8 81.8Z" fill="#DD8076"/>
<path d="M137.4 118.4C131.4 114 126.2 110.8 122.6 108L105.8 114.6L89 108C85.4 110.8 80.2 114.1 74.2 118.4C63 126.6 62.7 146.4 62.7 146.4V175.4H149V146.4C149 146.4 148.7 126.5 137.4 118.4Z" fill="#B88C78"/>
<path d="M99.8 175.4H111.7L129.1 112.6C126.6 110.9 124.4 109.4 122.6 108L105.8 114.6L89 108C87.2 109.4 85 110.9 82.5 112.6L99.8 175.4Z" fill="#947060"/>
<path d="M122.6 107.9L105.8 168.9L89 107.9L105.8 113.9L122.6 107.9Z" fill="url(#paint16_linear_15_35)"/>
<path d="M102.9 124L98 118.5L105.8 113.9L113.7 118.5L108.8 124H102.9Z" fill="url(#paint17_linear_15_35)"/>
<path d="M112.1 146.4L108.8 124H102.8L99.6 146.4L105.8 168.9L112.1 146.4Z" fill="url(#paint18_linear_15_35)"/>
<path d="M94.1 100.3L105.8 112.7V115.1L93.6 124.4L89 107.9L94.1 100.3Z" fill="url(#paint19_linear_15_35)"/>
<path d="M117.6 100.3L105.8 112.7V115.1L118.1 124.4L122.6 107.9L117.6 100.3Z" fill="url(#paint20_linear_15_35)"/>
<path d="M90.9 51.1C90.9 51.1 93.5 55.6 101.2 59C101.2 59 100.9 55.5 100.2 53.4C106.9 58.5 114.2 60.5 118.9 60.4C118.9 60.4 118.5 57.6 117.1 55.7C117.1 55.7 119.7 58.2 123.8 59.4C123.8 59.4 126 64.2 127.2 71.8C127.2 71.8 131.9 67 131.9 55.5C131.9 44 127 31.2 107.2 29.2L111.1 26.2C101.9 25.5 90.8 26.7 85.2 38.6C85.2 38.6 82.6 36.3 78.1 37.9C79.9 41.4 82.9 40.9 84.1 40.5C77.9 44.6 77.9 50.1 78.5 57.1C79.1 64 81.4 69.7 84.8 71.8C84.8 71.8 87.1 62.8 87.7 58.7C87.7 58.7 88.4 60.4 89.5 61C90.5 58.6 91.1 54.4 90.9 51.1Z" fill="url(#paint21_linear_15_35)"/>
</g>
<path d="M157.7 117.1L211.6 23.8V10.1C211.6 8.89998 211.4 7.79999 211 6.79999L147.3 117.1H157.7Z" fill="#0B7077"/>
<path d="M211.6 33.6L163.4 117.1H169.1L211.6 43.6V33.6Z" fill="#FD661F"/>
<path d="M53.9 117.1L0 23.8V10.1C0 8.89998 0.2 7.79999 0.6 6.79999L64.3 117.1H53.9Z" fill="#0B7077"/>
<path d="M0 33.6L48.2 117.1H42.4L0 43.6V33.6Z" fill="#FD661F"/>
<path d="M43.7 344.6L64.3 308.9H53.9L33.3 344.6H43.7Z" fill="#0B7077"/>
<path d="M157.7 308.9H147.3L167.9 344.6H178.3L157.7 308.9Z" fill="#FD661F"/>
<path d="M27.6 344.6L48.2 308.9H42.4L21.8 344.6H27.6Z" fill="#FD661F"/>
<path d="M169.1 308.9H163.4L184 344.6H189.7L169.1 308.9Z" fill="#FD661F"/>
<defs>
<linearGradient id="paint0_linear_15_35" x1="85.2196" y1="227.288" x2="98.7573" y2="240.826" gradientUnits="userSpaceOnUse">
<stop stop-color="#FF8AAF"/>
<stop offset="1" stop-color="#D4316A"/>
</linearGradient>
<linearGradient id="paint1_linear_15_35" x1="105.838" y1="133.664" x2="105.838" y2="96.6" gradientUnits="userSpaceOnUse">
<stop stop-color="#FBDAD0"/>
<stop offset="1" stop-color="#FBB8A6"/>
</linearGradient>
<linearGradient id="paint2_linear_15_35" x1="86.1883" y1="100.149" x2="138.626" y2="137.815" gradientUnits="userSpaceOnUse">
<stop stop-color="#FBB8A6"/>
<stop offset="1" stop-color="#FBDAD0" stop-opacity="0.1"/>
</linearGradient>
<linearGradient id="paint3_linear_15_35" x1="91.837" y1="84.2699" x2="119.647" y2="104.246" gradientUnits="userSpaceOnUse">
<stop stop-color="#FBB8A6"/>
<stop offset="1" stop-color="#FBDAD0" stop-opacity="0.1"/>
</linearGradient>
<linearGradient id="paint4_linear_15_35" x1="128.427" y1="73.1394" x2="127.905" y2="84.3044" gradientUnits="userSpaceOnUse">
<stop stop-color="#F3B0A8"/>
<stop offset="1" stop-color="#F5CEB5"/>
</linearGradient>
<linearGradient id="paint5_linear_15_35" x1="83.2474" y1="73.1394" x2="83.7697" y2="84.3044" gradientUnits="userSpaceOnUse">
<stop stop-color="#F3B0A8"/>
<stop offset="1" stop-color="#F5CEB5"/>
</linearGradient>
<linearGradient id="paint6_linear_15_35" x1="85.1979" y1="80.134" x2="85.1979" y2="70.964" gradientUnits="userSpaceOnUse">
<stop stop-color="#FBB8A6"/>
<stop offset="1" stop-color="#FBDAD0" stop-opacity="0.1"/>
</linearGradient>
<linearGradient id="paint7_linear_15_35" x1="126.476" y1="80.134" x2="126.476" y2="70.964" gradientUnits="userSpaceOnUse">
<stop stop-color="#FBB8A6"/>
<stop offset="1" stop-color="#FBDAD0" stop-opacity="0.1"/>
</linearGradient>
<linearGradient id="paint8_linear_15_35" x1="105.838" y1="83.3236" x2="105.838" y2="43.8897" gradientUnits="userSpaceOnUse">
<stop stop-color="#FBDAD0"/>
<stop offset="1" stop-color="#FBD0C4"/>
</linearGradient>
<linearGradient id="paint9_linear_15_35" x1="87.8163" y1="51.4341" x2="120.666" y2="75.0305" gradientUnits="userSpaceOnUse">
<stop stop-color="#FBB8A6"/>
<stop offset="1" stop-color="#FBDAD0" stop-opacity="0.1"/>
</linearGradient>
<linearGradient id="paint10_linear_15_35" x1="83.7138" y1="54.8102" x2="127.961" y2="54.8102" gradientUnits="userSpaceOnUse">
<stop stop-color="#FBB8A6"/>
<stop offset="1" stop-color="#FBDAD0" stop-opacity="0.1"/>
</linearGradient>
<linearGradient id="paint11_linear_15_35" x1="105.823" y1="85.6403" x2="105.823" y2="90.092" gradientUnits="userSpaceOnUse">
<stop stop-color="#302869"/>
<stop offset="1" stop-color="#852325"/>
</linearGradient>
<linearGradient id="paint12_linear_15_35" x1="105.837" y1="86.5867" x2="105.837" y2="90.6707" gradientUnits="userSpaceOnUse">
<stop stop-color="#851C1E"/>
<stop offset="1" stop-color="#D02D2F"/>
</linearGradient>
<linearGradient id="paint13_linear_15_35" x1="99.7313" y1="86.8595" x2="111.942" y2="86.8595" gradientUnits="userSpaceOnUse">
<stop stop-color="white"/>
<stop offset="1" stop-color="#BEDFE8"/>
</linearGradient>
<linearGradient id="paint14_linear_15_35" x1="116.149" y1="67.1968" x2="116.149" y2="72.1271" gradientUnits="userSpaceOnUse">
<stop stop-color="#252A3B"/>
<stop offset="1" stop-color="#676B78"/>
</linearGradient>
<linearGradient id="paint15_linear_15_35" x1="95.5277" y1="67.1968" x2="95.5277" y2="72.1271" gradientUnits="userSpaceOnUse">
<stop stop-color="#252A3B"/>
<stop offset="1" stop-color="#676B78"/>
</linearGradient>
<linearGradient id="paint16_linear_15_35" x1="105.839" y1="119.534" x2="105.839" y2="166.506" gradientUnits="userSpaceOnUse">
<stop stop-color="white"/>
<stop offset="1" stop-color="#CCD6E8"/>
</linearGradient>
<linearGradient id="paint17_linear_15_35" x1="107.821" y1="125.155" x2="104.34" y2="113.604" gradientUnits="userSpaceOnUse">
<stop stop-color="#3B3D45"/>
<stop offset="1" stop-color="#252A3B"/>
</linearGradient>
<linearGradient id="paint18_linear_15_35" x1="114.316" y1="169.843" x2="99.8864" y2="121.955" gradientUnits="userSpaceOnUse">
<stop stop-color="#3B3D45"/>
<stop offset="1" stop-color="#252A3B"/>
</linearGradient>
<linearGradient id="paint19_linear_15_35" x1="97.4417" y1="100.516" x2="97.4417" y2="124.647" gradientUnits="userSpaceOnUse">
<stop stop-color="white"/>
<stop offset="1" stop-color="#CCD6E8"/>
</linearGradient>
<linearGradient id="paint20_linear_15_35" x1="114.234" y1="100.516" x2="114.234" y2="124.646" gradientUnits="userSpaceOnUse">
<stop stop-color="white"/>
<stop offset="1" stop-color="#CCD6E8"/>
</linearGradient>
<linearGradient id="paint21_linear_15_35" x1="78.1092" y1="48.9801" x2="131.948" y2="48.9801" gradientUnits="userSpaceOnUse">
<stop stop-color="#3B3D45"/>
<stop offset="1" stop-color="#252A3B"/>
</linearGradient>
</defs>
</svg>
