<svg width="148" height="149" viewBox="0 0 148 149" fill="none" xmlns="http://www.w3.org/2000/svg">
<g filter="url(#filter0_d_15_28)">
<circle cx="74" cy="59.8" r="30" fill="#FBFBFB"/>
</g>
<path d="M63.5 58.175C65.1547 58.175 66.5 56.7176 66.5 54.925C66.5 53.1325 65.1547 51.675 63.5 51.675C61.8453 51.675 60.5 53.1325 60.5 54.925C60.5 56.7176 61.8453 58.175 63.5 58.175ZM84.5 58.175C86.1547 58.175 87.5 56.7176 87.5 54.925C87.5 53.1325 86.1547 51.675 84.5 51.675C82.8453 51.675 81.5 53.1325 81.5 54.925C81.5 56.7176 82.8453 58.175 84.5 58.175ZM86 59.8H83C82.175 59.8 81.4297 60.1606 80.8859 60.7446C82.775 61.8668 84.1156 63.893 84.4062 66.3H87.5C88.3297 66.3 89 65.5739 89 64.675V63.05C89 61.2575 87.6547 59.8 86 59.8ZM74 59.8C76.9016 59.8 79.25 57.2559 79.25 54.1125C79.25 50.9692 76.9016 48.425 74 48.425C71.0984 48.425 68.75 50.9692 68.75 54.1125C68.75 57.2559 71.0984 59.8 74 59.8ZM77.6 61.425H77.2109C76.2359 61.9329 75.1531 62.2375 74 62.2375C72.8469 62.2375 71.7688 61.9329 70.7891 61.425H70.4C67.4187 61.425 65 64.0454 65 67.275V68.7375C65 70.0833 66.0078 71.175 67.25 71.175H80.75C81.9922 71.175 83 70.0833 83 68.7375V67.275C83 64.0454 80.5812 61.425 77.6 61.425ZM67.1141 60.7446C66.5703 60.1606 65.825 59.8 65 59.8H62C60.3453 59.8 59 61.2575 59 63.05V64.675C59 65.5739 59.6703 66.3 60.5 66.3H63.5891C63.8844 63.893 65.225 61.8668 67.1141 60.7446Z" fill="#0B7077"/>
<defs>
<filter id="filter0_d_15_28" x="0" y="0.800049" width="148" height="148" filterUnits="userSpaceOnUse" color-interpolation-filters="sRGB">
<feFlood flood-opacity="0" result="BackgroundImageFix"/>
<feColorMatrix in="SourceAlpha" type="matrix" values="0 0 0 0 0 0 0 0 0 0 0 0 0 0 0 0 0 0 127 0" result="hardAlpha"/>
<feOffset dy="15"/>
<feGaussianBlur stdDeviation="22"/>
<feColorMatrix type="matrix" values="0 0 0 0 0.0509804 0 0 0 0 0.0588235 0 0 0 0 0.109804 0 0 0 0.12 0"/>
<feBlend mode="normal" in2="BackgroundImageFix" result="effect1_dropShadow_15_28"/>
<feBlend mode="normal" in="SourceGraphic" in2="effect1_dropShadow_15_28" result="shape"/>
</filter>
</defs>
</svg>
