<svg width="30" height="30" viewBox="0 0 30 30" fill="none" xmlns="http://www.w3.org/2000/svg">
<path d="M16.3601 1.76465C17.849 1.76862 18.6047 1.77656 19.2571 1.79509L19.5139 1.80435C19.8104 1.81494 20.1028 1.82818 20.4562 1.84406C21.8644 1.91023 22.8252 2.13258 23.6682 2.45949C24.5417 2.79565 25.2776 3.25094 26.0134 3.98548C26.6864 4.64709 27.2071 5.4474 27.5394 6.33072C27.8663 7.17379 28.0886 8.13465 28.1548 9.54417C28.1707 9.89622 28.1839 10.1887 28.1945 10.4865L28.2024 10.7433C28.2223 11.3944 28.2302 12.1501 28.2329 13.6391L28.2342 14.6264V16.3602C28.2374 17.3256 28.2273 18.2909 28.2037 19.256L28.1958 19.5128C28.1852 19.8106 28.172 20.103 28.1561 20.4551C28.0899 21.8646 27.8649 22.8242 27.5394 23.6685C27.2081 24.5523 26.6872 25.3529 26.0134 26.0138C25.3516 26.6865 24.5514 27.2073 23.6682 27.5398C22.8252 27.8667 21.8644 28.089 20.4562 28.1552C20.1422 28.17 19.8281 28.1832 19.5139 28.1949L19.2571 28.2029C18.6047 28.2214 17.849 28.2306 16.3601 28.2333L15.3728 28.2346H13.6404C12.6746 28.2379 11.7088 28.2278 10.7433 28.2042L10.4866 28.1962C10.1724 28.1843 9.85828 28.1707 9.54426 28.1552C8.1361 28.089 7.17527 27.8667 6.3309 27.5398C5.44771 27.2081 4.64774 26.6872 3.98705 26.0138C3.31346 25.3524 2.79226 24.5521 2.45977 23.6685C2.13288 22.8255 1.91054 21.8646 1.84436 20.4551C1.82962 20.141 1.81638 19.8269 1.80466 19.5128L1.79804 19.256C1.77365 18.2909 1.76262 17.3256 1.76495 16.3602V13.6391C1.76126 12.6737 1.77097 11.7084 1.79407 10.7433L1.80333 10.4865C1.81392 10.1887 1.82716 9.89622 1.84304 9.54417C1.90921 8.13465 2.13155 7.17511 2.45845 6.33072C2.79079 5.44649 3.31303 4.64594 3.98837 3.98548C4.6489 3.31245 5.44834 2.79167 6.3309 2.45949C7.17527 2.13258 8.13477 1.91023 9.54426 1.84406C9.8963 1.82818 10.1901 1.81494 10.4866 1.80435L10.7433 1.79641C11.7084 1.7729 12.6737 1.76275 13.6391 1.76597L16.3601 1.76465ZM14.9996 8.38214C13.2446 8.38214 11.5614 9.07934 10.3204 10.3204C9.07944 11.5614 8.38226 13.2446 8.38226 14.9996C8.38226 16.7547 9.07944 18.4379 10.3204 19.6789C11.5614 20.9199 13.2446 21.6171 14.9996 21.6171C16.7546 21.6171 18.4377 20.9199 19.6787 19.6789C20.9197 18.4379 21.6169 16.7547 21.6169 14.9996C21.6169 13.2446 20.9197 11.5614 19.6787 10.3204C18.4377 9.07934 16.7546 8.38214 14.9996 8.38214ZM14.9996 11.0291C15.521 11.0291 16.0373 11.1317 16.519 11.3311C17.0008 11.5306 17.4385 11.823 17.8073 12.1916C18.176 12.5602 18.4685 12.9979 18.6681 13.4796C18.8677 13.9613 18.9705 14.4776 18.9706 14.999C18.9707 15.5204 18.8681 16.0367 18.6686 16.5185C18.4692 17.0002 18.1768 17.438 17.8082 17.8067C17.4396 18.1755 17.0019 18.468 16.5202 18.6676C16.0386 18.8673 15.5223 18.97 15.0009 18.9701C13.9479 18.9701 12.938 18.5518 12.1934 17.8072C11.4488 17.0626 11.0305 16.0527 11.0305 14.9996C11.0305 13.9466 11.4488 12.9367 12.1934 12.1921C12.938 11.4475 13.9479 11.0291 15.0009 11.0291M21.9491 6.39689C21.5103 6.39689 21.0895 6.57119 20.7793 6.88145C20.469 7.1917 20.2947 7.6125 20.2947 8.05127C20.2947 8.49003 20.469 8.91083 20.7793 9.22108C21.0895 9.53134 21.5103 9.70564 21.9491 9.70564C22.3878 9.70564 22.8086 9.53134 23.1189 9.22108C23.4291 8.91083 23.6034 8.49003 23.6034 8.05127C23.6034 7.6125 23.4291 7.1917 23.1189 6.88145C22.8086 6.57119 22.3878 6.39689 21.9491 6.39689Z" fill="#0B7077"/>
</svg>
