<svg width="100" height="100" viewBox="0 0 100 100" fill="none" xmlns="http://www.w3.org/2000/svg">
<g clip-path="url(#clip0_45_2)">
<path fill-rule="evenodd" clip-rule="evenodd" d="M12.8125 33.6015C6.30469 41.2422 0 50.4687 0 57.8047C0 62.039 3.5625 67.9922 12.2656 67.9922C16.9688 67.9922 21.6406 66.1015 25.2969 64.6406C31.4609 62.1719 99.5781 32.5937 99.5781 32.5937C100.234 32.2656 100.117 31.8515 99.2891 32.0547C98.9609 32.1406 25.1328 52.1484 25.1328 52.1484C23.7109 52.5469 22.2578 52.7656 20.8438 52.7656C14.4609 52.7656 10.1562 49.7031 10.1562 43.0078C10.1562 40.414 10.9688 37.2812 12.8125 33.6015Z" fill="#063D41"/>
</g>
<defs>
<clipPath id="clip0_45_2">
<rect width="100" height="100" fill="white"/>
</clipPath>
</defs>
</svg>
