<svg width="71" height="77" viewBox="0 0 71 77" fill="none" xmlns="http://www.w3.org/2000/svg">
<path d="M0.333374 10.5C0.333374 4.97715 4.81053 0.5 10.3334 0.5H60.3334C65.8562 0.5 70.3334 4.97715 70.3334 10.5V66.5C70.3334 72.0229 65.8562 76.5 60.3334 76.5H10.3334C4.81053 76.5 0.333374 72.0229 0.333374 66.5V10.5Z" fill="#23A6F0"/>
<path d="M35.1667 34.9444C34.3383 34.9444 33.6667 34.248 33.6667 33.3889C33.6667 32.5298 34.3383 31.8333 35.1667 31.8333C35.9951 31.8333 36.6667 32.5298 36.6667 33.3889C36.6667 34.248 35.9951 34.9444 35.1667 34.9444ZM44.6667 41.1667H32.6667L35.6667 37.0185L36.6667 38.0555L39.6667 33.9074L44.6667 41.1667ZM46 46.5H30C28.5273 46.5 27.3334 45.3061 27.3334 43.8333V27.8333C27.3334 26.3606 28.5273 25.1667 30 25.1667H46C47.4728 25.1667 48.6667 26.3606 48.6667 27.8333V43.8333C48.6667 45.3061 47.4728 46.5 46 46.5ZM30 27.8333V43.8333H46V27.8333H30ZM24.6667 33.1667H22V49.1667C22 50.6394 23.1939 51.8333 24.6667 51.8333H40.6667V49.1667H24.6667V33.1667Z" fill="white"/>
<path d="M35.1667 34.9444C34.3383 34.9444 33.6667 34.248 33.6667 33.3889C33.6667 32.5298 34.3383 31.8333 35.1667 31.8333C35.9951 31.8333 36.6667 32.5298 36.6667 33.3889C36.6667 34.248 35.9951 34.9444 35.1667 34.9444ZM44.6667 41.1667H32.6667L35.6667 37.0185L36.6667 38.0555L39.6667 33.9074L44.6667 41.1667ZM46 46.5H30C28.5273 46.5 27.3334 45.3061 27.3334 43.8333V27.8333C27.3334 26.3606 28.5273 25.1667 30 25.1667H46C47.4728 25.1667 48.6667 26.3606 48.6667 27.8333V43.8333C48.6667 45.3061 47.4728 46.5 46 46.5ZM30 27.8333V43.8333H46V27.8333H30ZM24.6667 33.1667H22V49.1667C22 50.6394 23.1939 51.8333 24.6667 51.8333H40.6667V49.1667H24.6667V33.1667Z" fill="white"/>
<path fill-rule="evenodd" clip-rule="evenodd" d="M35.1667 34.9444C34.3383 34.9444 33.6667 34.248 33.6667 33.3889C33.6667 32.5298 34.3383 31.8333 35.1667 31.8333C35.9951 31.8333 36.6667 32.5298 36.6667 33.3889C36.6667 34.248 35.9951 34.9444 35.1667 34.9444ZM44.6667 41.1667H32.6667L35.6667 37.0185L36.6667 38.0555L39.6667 33.9074L44.6667 41.1667ZM46 46.5H30C28.5273 46.5 27.3334 45.3061 27.3334 43.8333V27.8333C27.3334 26.3606 28.5273 25.1667 30 25.1667H46C47.4728 25.1667 48.6667 26.3606 48.6667 27.8333V43.8333C48.6667 45.3061 47.4728 46.5 46 46.5ZM30 27.8333V43.8333H46V27.8333H30ZM24.6667 33.1667H22V49.1667C22 50.6394 23.1939 51.8333 24.6667 51.8333H40.6667V49.1667H24.6667V33.1667Z" fill="white"/>
<path d="M35.1667 34.9444C34.3383 34.9444 33.6667 34.248 33.6667 33.3889C33.6667 32.5298 34.3383 31.8333 35.1667 31.8333C35.9951 31.8333 36.6667 32.5298 36.6667 33.3889C36.6667 34.248 35.9951 34.9444 35.1667 34.9444ZM44.6667 41.1667H32.6667L35.6667 37.0185L36.6667 38.0555L39.6667 33.9074L44.6667 41.1667ZM46 46.5H30C28.5273 46.5 27.3334 45.3061 27.3334 43.8333V27.8333C27.3334 26.3606 28.5273 25.1667 30 25.1667H46C47.4728 25.1667 48.6667 26.3606 48.6667 27.8333V43.8333C48.6667 45.3061 47.4728 46.5 46 46.5ZM30 27.8333V43.8333H46V27.8333H30ZM24.6667 33.1667H22V49.1667C22 50.6394 23.1939 51.8333 24.6667 51.8333H40.6667V49.1667H24.6667V33.1667Z" fill="white"/>
</svg>
