<svg width="71" height="77" viewBox="0 0 71 77" fill="none" xmlns="http://www.w3.org/2000/svg">
<path d="M0.666656 10.5C0.666656 4.97715 5.14381 0.5 10.6667 0.5H60.6667C66.1895 0.5 70.6667 4.97715 70.6667 10.5V66.5C70.6667 72.0229 66.1895 76.5 60.6667 76.5H10.6667C5.14381 76.5 0.666656 72.0229 0.666656 66.5V10.5Z" fill="#23A6F0"/>
<path d="M22.3333 33.7C22.333 31.7671 23.1098 29.9153 24.4891 28.5611C25.8683 27.2069 27.7341 26.4642 29.6667 26.5C31.9564 26.4878 34.1413 27.4589 35.6667 29.1667C37.192 27.4589 39.3769 26.4878 41.6667 26.5C43.5992 26.4642 45.465 27.2069 46.8442 28.5611C48.2235 29.9153 49.0003 31.7671 49 33.7C49 40.8413 40.4947 46.2333 35.6667 50.5C30.8493 46.1973 22.3333 40.8467 22.3333 33.7Z" fill="white"/>
</svg>
