<svg width="70" height="77" viewBox="0 0 70 77" fill="none" xmlns="http://www.w3.org/2000/svg">
<path d="M0 10.5C0 4.97715 4.47715 0.5 10 0.5H60C65.5229 0.5 70 4.97715 70 10.5V66.5C70 72.0229 65.5229 76.5 60 76.5H10C4.47715 76.5 0 72.0229 0 66.5V10.5Z" fill="#23A6F0"/>
<path d="M45.6667 49.1667H24.3333C22.8606 49.1667 21.6667 47.9728 21.6667 46.5V30.5C21.6667 29.0273 22.8606 27.8333 24.3333 27.8333H45.6667C47.1394 27.8333 48.3333 29.0273 48.3333 30.5V46.5C48.3333 47.9728 47.1394 49.1667 45.6667 49.1667ZM24.3333 38.5V46.5H45.6667V38.5H24.3333ZM24.3333 30.5V33.1667H45.6667V30.5H24.3333ZM36.3333 43.8333H27V41.1667H36.3333V43.8333Z" fill="white"/>
</svg>
